<svg xmlns="http://www.w3.org/2000/svg" version="1.1" width="600px" height="600px" viewBox="0 0 200 200" style="overflow:hidden!important;"><g id="svga-group-wrapper"><g id="svga-group-backs-single"><path id="SvgjsPath10200" d="M0 0h200v200H0V0z" fill="#ecf0f1" stroke-width="none" opacity="1"></path></g><g id="svga-group-humanwrap-move" transform="matrix(1,0,0,1,0,0)"><g id="svga-group-humanwrap"><g id="svga-group-hair-back-move" transform="matrix(1,0,0,1,0,0)"><g id="svga-group-hair-back"></g></g><g id="svga-group-humanbody-back"><path id="SvgjsPath10145" d="M166.5 181.1c-10.9-6.6-27.6-8.4-35-12.1-4.9-2.5-9.1-4.7-8.9-17.8s1.9-42.4 1.9-42.4H75.4s1.6 29.4 1.9 42.4-4.2 15.6-8.9 17.8c-7.4 3.5-24.1 5.4-35 12.1-10.8 6.6-10 18.9-10 18.9v19.7h153.3V200c-.1 0 .7-12.3-10.2-18.9z" fill="#f0c7b1" stroke-width="none" opacity="1"></path></g><g id="svga-group-chinshadow-single"><path id="SvgjsPath10141" d="M124.5 108.9H75.4c.1 1.8 1.6 29.7 1.9 42.3 0 1.4 0 2.7-.1 3.9 1.7 2.2 3.4 4.2 5.1 5.9 5.5 6.1 8.4 6.5 17.7 6.5s12.2-.4 17.7-6.5c1.6-1.7 3.3-3.7 5-5.9-.1-1.2-.1-2.5-.1-3.9.2-12.7 1.8-40.5 1.9-42.3z" fill="#d19271" stroke-width="none" opacity="0.65"></path></g><g id="svga-group-humanbody-front"><path id="SvgjsPath10146" d="M78.7 156.8c.5 4.8 1.7 9.4 3.1 13.9.8 2.3 1.6 4.6 2.6 6.9.8 2 1.7 4.2 3.1 5.9.3.4 1 0 .9-.5-.5-2.2-1.6-4.3-2.4-6.4-.9-2.2-1.7-4.4-2.5-6.6-1.5-4.4-2.8-8.9-4.1-13.3-.2-.4-.8-.3-.7.1zm41.3-1c-1.3 8.2-3.9 16.1-5.4 24.2-.1.4.4.5.6.2 3.1-7.7 4.1-16.1 5.1-24.3-.1-.2-.3-.2-.3-.1zm-25.8 11.9c-.9 3.6 1.9 8.6 6.2 7.6.5-.1.4-.8 0-1-1.4-.5-2.9-.9-3.9-2.1-1.1-1.2-1.5-2.9-1.4-4.5 0-.4-.8-.5-.9 0z" fill="#d19271" stroke-width="none" opacity="1"></path><path id="SvgjsPath10147" d="M177.3 219.7c-.1-6.6-.3-13.1-.3-19.7l-.3-.3c.1 0 .1 0 .2.1s.1.2.1.1v-1.4c0-.5-.1-.9-.1-1.4-.1-.9-.3-1.9-.5-2.8-.5-1.8-1.1-3.6-2-5.3-1.7-3.4-4.4-6.2-7.7-8.1-3.6-2.2-7.6-3.8-11.6-5.1-4-1.3-8.1-2.4-12.1-3.5-4-1.2-8.1-2.2-11.8-4.2-1.9-1-3.6-2.1-4.8-3.6-1.2-1.6-1.9-3.5-2.3-5.5-.8-4-.4-8.2-.3-12.4l.7-12.6 1.5-25.2.1-1.4h-1.4c-8.2 0-16.4 0-24.6.1l-24.6.3h-.9l.1.9c.8 11.9 1.6 23.8 2.1 35.7.1 3 .3 6 .2 8.9-.1 2.9-.4 5.9-1.6 8.6-.6 1.3-1.4 2.5-2.4 3.5s-2.3 1.8-3.6 2.4c-2.6 1.3-5.4 2.2-8.3 3-5.8 1.5-11.6 2.8-17.3 4.7-2.8.9-5.7 2-8.4 3.4-1.3.7-2.7 1.4-4 2.4-1.3.9-2.4 1.9-3.5 3.1-2.1 2.3-3.6 5.2-4.5 8.1-.5 1.5-.8 3-1 4.6-.1.8-.1 1.6-.1 2.4v2.3l-.2 17.9v1.3h1.4l38.3.2c12.8.1 25.5.1 38.3 0 12.8-.1 25.6-.1 38.3-.3 12.8-.2 25.6-.5 38.3-.7h.6v-.5zm-77.2-1.6H61.8l-37 .2-.1-16.6v-2.2c0-.7 0-1.4.1-2.1.1-1.4.4-2.8.8-4.2.8-2.7 2.1-5.3 3.9-7.5.9-1.1 2-2.1 3.1-2.9 1.1-.9 2.4-1.6 3.7-2.3 2.6-1.4 5.3-2.5 8.1-3.5 5.6-2 11.4-3.4 17.1-5.1 2.9-.8 5.8-1.7 8.5-3.1 1.3-.7 2.7-1.5 3.8-2.6 1.1-1.1 2-2.4 2.6-3.9 1.2-2.9 1.5-5.9 1.6-8.9 0-3-.1-6-.2-9l-1.3-34.8 23.5.4c7.7.1 15.4.1 23.1.1-.4 7.9-.8 15.9-1.1 23.8-.2 4.2-.2 8.4-.3 12.6 0 4.2-.2 8.5.8 12.8.5 2.1 1.3 4.2 2.8 6 1.4 1.7 3.4 2.9 5.3 3.8 3.9 1.9 8 2.8 12.1 3.8s8.2 2 12.2 3.3c4 1.3 7.9 2.8 11.5 5 3.2 1.9 5.8 4.7 7.5 8 .9 1.6 1.5 3.4 1.9 5.2.2.9.4 1.8.4 2.7.1.5.1.9.1 1.4V200l-.3 19c-12.6-.2-25.1-.5-37.7-.7-12.7-.1-25.5-.1-38.2-.2z" fill="#c27b55" stroke-width="none" opacity="1"></path></g><g id="svga-group-clothes-single"><path id="SvgjsPath10023" d="M100.8 184.4c-1.1-3-8.2-7.8-13.2-10.6s-7-4.9-10-8.8c-1.8-3.6-1-8.9-1-8.9-.1-4.7-.6-9.5-.9-14.7-8.2-1.1-13.1 3.7-14 4.6-6.5 6.3-3.1 8.5-5.7 11.5-9.2 2.1-7.1 14.2-10.7 15-8.7 1.9-21.2 7-24.2 21 0 0-1.6 9.2-1.6 26.7h160.7c0-17.5-1.6-26.7-1.6-26.7-3.2-15.2-17.6-19-26.1-21.4-1.4-.6.2-5.2-2.5-10.5-1.4-2.7-3.9-6.5-9.3-7.8 0 0-1.2-6.6-5.4-9.9-4.2-3.3-11.2-2.5-11.2-2.5s-.3 14.1-.3 16.1c0 3.2-.2 4.9-1.6 6.6s-4.4 3.9-6.9 7.5-10.1 7.5-11.7 9c-1.4 1.4-2.8 3.8-2.8 3.8z" fill="#525252" stroke-width="none" opacity="1"></path><path id="SvgjsPath10024" d="M105.6 187.4c-.6.6-1.7 3.4-1.8 5.7s1.8 11.5 2.1 13.4-1 7.4-1 8.5 2.8 2.8 3.1 1.7c.3-1.1 1.2-8.4.2-10.9s-2.2-10.1-2.2-11.6 1.1-5.6 1.6-6.5c0 0 .2-.8-.6-.9-.8-.1-1.4.6-1.4.6z" fill="#d6d6d6" stroke-width="none" opacity="1"></path><path id="SvgjsPath10025" d="m95.6 186.8.1-.2s1.8-1.3 1.9.9c0 0-1.2 2.8-1.2 4.8s2.2 11.9 2.5 14.1-2.7 10.4-3.1 10.5-2.1-.9-2.6-1.3c-.4-.4 2.5-6.9 2.8-9.9.3-2.9-.4-8.7-1.2-12.2-.8-3.5.4-5.9.8-6.6v-.1z" fill="#d6d6d6" stroke-width="none" opacity="1"></path><path id="SvgjsPath10026" d="M181.4 204.3c-.2-2.6-.4-5.2-.7-7.9l-.2-2-.1-1v-.3c0-.1 0-.2-.1-.3l-.1-.5c-.3-1.4-.7-2.7-1.2-4-1.1-2.6-2.6-5-4.4-7.1-1.9-2.1-4.1-3.8-6.5-5.2-4.6-2.7-9.6-4.2-14.5-5.5v-.1c-.1-.4-.1-.9-.1-1.4-.1-1-.1-2-.3-3.1-.3-2.1-1.1-4.2-2.1-6-1-1.8-2.4-3.6-4.1-4.9-1.5-1.2-3.2-2-5-2.6-.4-1.4-.8-2.8-1.4-4.1-.7-1.6-1.6-3.1-2.9-4.4-1.3-1.4-3.4-2.5-5-3-5.1-1.2-8.6-.4-8.6-.4s-1.2 9.6-2.9 22.5c0 0-3.9 4.9-5.3 6.8-.4.4-.7 1-1.1 1.4-.2.2-.3.4-.5.6l-.6.6c-.8.8-1.7 1.5-2.6 2.2-1.8 1.4-3.8 2.7-5.7 4-.5.3-1 .7-1.4 1.1-.5.4-.8.9-1.2 1.3-.4.5-.7.9-1 1.4l-.5.8-.2.4-.1.1-.2-.3-.3-.6c-.2-.4-.5-.7-.8-1l-1.8-1.8c-1.3-1.1-2.6-2.2-4-3.2s-2.8-1.9-4.2-2.8c-1.4-.9-2.9-1.7-4.2-2.7-2.7-2-4.5-4.6-6.6-7.1-1.1-1.3-1.7-3.5-1.9-4.9-.1-1 .6-10.8-.2-17.9 0-.4-.7-.9-5.6-1.1-5 .1-8.8 3.3-10.4 4.9-1.5 1.6-3.1 3.3-3.9 5.6-.4 1.1-.5 2.4-.7 3.4-.1.9-.3 1.4-.7 1.9-1.7.4-3.3 1.3-4.5 2.5-1.4 1.4-2.3 3-2.9 4.7-.7 1.7-1.1 3.4-1.5 4.9-.2.8-.5 1.5-.8 2.1-.1.3-.3.4-.4.5 0 0-.1 0-.1.1l-.6.1c-3.3.8-6.6 1.9-9.8 3.4-3.1 1.6-6 3.6-8.4 6.2-2.4 2.6-4.2 5.7-5.3 9-.3.8-.5 1.7-.7 2.5l-.1.7c0 .1 0 .2-.1.4v.3l-.2 1.3c-.2 1.7-.3 3.4-.5 5-.5 6.7-.6 13.4-.5 20.1 0 .4.1 1.3.5 1.3 13.4-.2 160.9.2 160.9.2.8 0 1.5-.7 1.5-1.5-.1-5-.2-10.3-.6-15.6zm-27.8-33.4zm-28.8-26.1c1 .6 4.7 2.5 6 5.1.1.8.2 1.8 0 2.6s-.6 1.5-1.1 2.3c-2.1 2.6-6.1 6.3-6.5 6.8 5.1-8.8 1.6-16.8 1.6-16.8zm-50.4 17.7c.9 1.4 4 4.3 5 5.5-.4-.3-3.9-3-4.3-3.2-1.2-.8-1.8-1.7-2.7-2.9-1.8-2.2-2.7-5.1-3.4-8-.3-1.4-.6-2.9.3-3.8 2.2-1.5 5.9-2 6.1-2.1.2 2.7-3.2 5.8-3.1 8.5-.1.3-.1.4-.1.7v.8c.1.5.2 1 .3 1.4.3.7 1.4 2.3 1.9 3.1zM48 171.8c.5-.9.8-1.8 1-2.6.5-1.7.8-3.2 1.4-4.7.5-1.5 1.3-2.8 2.3-3.8s2.3-1.7 3.7-2c.2 0 .3-.1.5-.2.1 1.1.2 2.2.4 3.3.3 1.7.7 3.4 1.4 5 .3.9.8 1.6 1.2 2.4.5.7 1 1.5 1.5 2.2 2.3 2.8 5.1 4.8 8.2 6.4 3.1 1.6 6.3 2.8 9.7 3.4-3.1-1.4-6.1-3-8.9-4.8-1.4-.9-2.8-1.8-4-2.9-1.3-1.1-2.5-2.2-3.4-3.4-.5-.6-1-1.3-1.4-1.9-.4-.7-.8-1.4-1.1-2.1-.7-1.4-1.1-3.1-1.6-4.6-.4-1.4-.7-2.9-.9-4.3.1-.2-.8-5.1 4.4-9.9 1.4-1.5 3-2.8 4.6-3.8 4.2-2.4 6.8-1.4 8.1-1.2.1 2 .2 3.1.3 5.1-.3.1-4.2 1-4.5 1.1-.7.3-1.5.5-2.2 1.1-.7.5-1.1 1.5-1.2 2.3-.1.9 0 1.7.1 2.5.4 3.1 1.3 6.3 3.3 8.9 1 1.3 2.3 2.4 3.6 3.2l3.9 2.4c1.3.8 2.6 1.5 3.9 2.2.8.6 1.5 1.2 2.3 1.7 1.4 1 2.9 1.8 4.4 2.6 1.4.8 2.9 1.7 4.3 2.6s2.8 1.9 4.1 2.9c.7.5 1.3 1.1 1.9 1.7.3.3.6.6.8.9.1.2.2.3.3.5l.2.3c.1.1.2.3.3.4 0 0 .1 0 .2-.1v-.1l.1-.1.1-.2.2-.4.5-.7c.3-.5.7-.9 1.1-1.4.4-.4.8-.9 1.2-1.2.4-.3.9-.7 1.4-1 2-1.2 4-2.4 5.9-3.8 1-.7 1.9-1.4 2.8-2.2.2-.2.4-.4.7-.6.2-.2.4-.4.6-.7.4-.5.7-.9 1.1-1.4 1.5-1.7 3.2-3.3 4.9-4.9l2.6-2.4c.7-.7 3.2-2.8 3.6-3.2 1.5-1.3 2.8-2.7 3.8-4.5 1-1.8.9-4 .2-6.1-1.1-2.4-5.6-5-6.9-5.8l-.1-2.5c.2.1 4.4-.9 8.1 1.4 2.5 1.6 4.6 5.3 5.3 6.7.6 1.4 1.1 2.9 1.4 4.4.1.5.5.9 1 1.1.1 0 .1 0 .2.1-.2 2-.6 4-1.4 5.8-.6 1.5-1.3 2.9-2.3 4-1 1.2-2.2 2.3-3.4 3.3-.6.5-1.2 1-1.8 1.6l-1.9 1.5c-1.3 1-2.6 2-3.9 2.9-2.6 1.9-5.3 3.8-7.9 5.8 3.1-1.3 6-2.8 8.8-4.5 2.8-1.7 5.6-3.6 8.1-5.8.6-.6 1.3-1.1 1.8-1.7l.9-.9.8-1c1.1-1.4 1.8-3 2.3-4.7.6-2 .8-4 .7-6.1 1.4.5 2.6 1.1 3.7 2.1 1.4 1.1 2.4 2.6 3.3 4.2.9 1.6 1.5 3.3 1.7 5.1.1.9.2 1.8.2 2.8 0 .5 0 1 .1 1.6 0 .3.1.6.2 1.1.1.2.2.5.4.7l.1.1-1.4 1.4c-.9.8-1.9 1.6-2.8 2.4-1.9 1.6-3.9 3.1-5.9 4.5-2 1.4-4 2.9-6.1 4-1.1.6-2.1 1.1-3.2 1.5-1.1.4-2.3.8-3.5 1.1-2.4.7-4.8 1.3-7.2 1.8-2.4.6-4.8 1.1-7.2 1.5l-3.6.6c-.6.1-1.2.1-1.7.1-.6 0-1.1-.2-1.6-.4l-.2-.1c.3-1.1.6-2.3 1-3.3.1-.2 0-.5-.1-.7s-.4-.3-.7-.3c-.5 0-.9.3-1.2.6.3-.4.8-.6 1.2-.6.2 0 .5.1.6.3.1.2.2.4.1.7-.5 1.2-.8 2.4-1.2 3.7-.3 1.2-.6 2.6-.4 3.9.2 2.6.6 5.1 1.1 7.7.1.6.3 1.3.4 1.9l.3.9c.1.3.2.6.2.9.2 1.2.2 2.5.2 3.8-.1 1.3-.2 2.6-.3 3.8-.1.6-.2 1.3-.3 1.9 0 .1-.1.3-.1.4-.1 0-.4 0-.6-.1-.5-.2-1-.6-1.3-1-.1-.1-.1-.2-.2-.3v-.3c0-.3.1-.6.1-.9.2-1.3.4-2.5.6-3.8.1-.6.2-1.3.2-1.9 0-.6 0-1.4-.1-2l-.8-3.8c-.5-2.5-1.1-5.1-1.4-7.6-.1-.6-.1-1.3-.1-1.9 0-.5.1-.9.2-1.4 0 0 .1-.4.1-.5.2-.6.3-1.2.6-1.9-.2.6-.4 1.2-.6 1.9 0 .1-.1.3-.1.4-1-.6-2.1-.9-3.3-1.1-1.3-.2-2.5-.3-3.8-.5.2-.8.4-1.5.7-2.2 0-.2-.1-.5-.2-.7s-.2-.4-.5-.6c-.5-.2-1 0-1.4.3.4-.2.9-.4 1.3-.2s.5.8.5 1.2c-.5 1.2-1 2.4-1.2 3.8-.1.6-.2 1.4-.1 2 .1.7.2 1.3.3 2 .4 2.6.9 5.2 1.4 7.8l.3 1.9c.1.6.2 1.3.2 1.9-.1 1.2-.4 2.5-.8 3.7-.4 1.2-.8 2.5-1.2 3.7-.2.6-.5 1.2-.7 1.8-.1.1-.1.2-.2.4-.2-.1-.4-.1-.7-.3-.3-.1-.6-.3-.8-.5-.1-.1-.2-.2-.4-.3l-.1-.1c0-.2.1-.5.2-.8l.3-.9 1.3-3.7c.4-1.3.8-2.5 1-3.9.2-1.4.1-2.7 0-4-.2-2.6-.7-5.2-1.2-7.8-.6-1.8-.6-3.9-.1-5.7h.1s0-.1-.1-.1c.2-.6.4-1.2.7-1.8-.3.5-.6 1.1-.8 1.7-.5-.6-.8-1.4-.6-1.9.2-.6.8-1 1.6-.9.7 0 1.4.4 2 .9.3.3.5.6.6 1 .1.3-.1.7-.5 1 .2 0 .5-.1.7-.3s.3-.5.3-.7c0-.5-.2-1-.5-1.4-.6-.8-1.5-1.4-2.5-1.5-.5 0-1.1.1-1.6.4s-.8.8-.8 1.4c-.1 1.1.6 1.8 1.4 2.2-.1.4-.2.7-.3 1.1l-5.5-.7c-2.6-.4-5.2-.6-7.8-1-2.6-.4-5.2-.8-7.7-1.3-1.3-.2-2.5-.5-3.7-.9-1.2-.3-2.4-.9-3.6-1.4-2.4-1-4.7-2.3-6.9-3.5-2.3-1.3-4.5-2.6-6.7-4-1.1-.7-2.2-1.4-3.2-2.2l-1.5-1.2-.6-.6c-.1-1 .1-1.3.3-1.6zm52 47.5-20.1.2-20.1.1c-13.2.1-26.3 0-39.5-.2.1-6.4.4-12.9 1.1-19.3.2-1.6.4-3.3.6-4.9l.2-1.2v-.3c0-.1 0-.2.1-.3l.1-.6c.2-.8.4-1.5.7-2.3 1.1-3 2.8-5.7 5-8s4.9-4.1 7.8-5.5c2.9-1.4 6-2.5 9.1-3.2l.6-.1c.4-.1.7-.2 1-.5.2-.1.3-.2.4-.4.5.8 1.2 1.4 1.9 2.1 1 .9 2 1.8 3 2.6 2.1 1.6 4.2 3.1 6.5 4.6 2.2 1.4 4.5 2.7 6.9 3.9 1.2.6 2.4 1.1 3.8 1.5 1.3.4 2.6.7 3.9 1 5.2 1 10.4 1.6 15.7 1.9 2.2.1 3.4.2 5.5.2-.1 1.2 0 2.5.2 3.7.5 2.6.8 5.2.9 7.8.1 1.3.1 2.6-.1 3.9-.2 1.2-.6 2.5-1 3.7l-1.3 3.7c-.1.3-.2.6-.3 1-.1.3-.2.6-.2 1.1v.3c0 .1.1.2.1.2l.1.1c.1.1.2.1.2.2.1.1.3.2.4.3.3.2.6.4.9.5.3.2.6.3 1.1.4h.4c.2-.1.2-.1.3-.2.1-.1.2-.2.2-.3.1-.2.2-.3.2-.5.3-.6.5-1.2.7-1.9.4-1.2.8-2.5 1.2-3.8.3-1.3.7-2.6.8-4 0-.8-.2-1.4-.3-2-.1-.6-.2-1.3-.4-1.9-.5-2.6-1.1-5.1-1.6-7.7-.1-.6-.2-1.3-.3-1.9-.1-.6-.1-1.3 0-1.9 0-.2.1-.4.1-.6 2.4.1 4.9-.1 7.2.7-.1.5-.2.9-.2 1.4-.1.6 0 1.3.1 1.9.3 2.6.7 5.1 1.1 7.7l.6 3.8c.2 1.2-.1 2.5-.3 3.7l-.7 3.8c-.1.3-.1.6-.1 1 0 .1 0 .5.1.7.1.2.2.4.3.5.5.6 1.1 1 1.7 1.3.3.1.7.3 1.3.2.3-.1.6-.4.7-.6.1-.2.1-.4.1-.5.1-.7.2-1.3.3-2 .2-1.3.2-2.6.3-3.9 0-1.3 0-2.6-.3-3.9-.1-.3-.2-.7-.3-1l-.3-.9c-.2-.6-.4-1.2-.5-1.9-.6-2.5-1.1-5-1.5-7.6-.2-1-.1-2.1.2-3.1.6.3 1.3.5 1.9.6.3.1.7.1 1 .1h1c1.3 0 2.5-.2 3.8-.3 5-.6 9.9-1.6 14.7-2.9 1.2-.4 2.4-.7 3.6-1.2 1.2-.4 2.4-1 3.5-1.7 2.2-1.3 4.2-2.8 6.1-4.4 1.9-1.6 3.8-3.2 5.6-5 .9-.9 1.8-1.8 2.6-2.8.4-.5.8-1 1.2-1.6.2.1.4.3.6.4.1 0 .1.1.2.1 5 1.4 9.9 2.9 14.2 5.5 4.3 2.5 7.7 6.2 9.6 10.7.4 1.1.8 2.3 1.1 3.5l.1.4v.4l.1.9.2 1.9c.3 2.6.5 5.1.7 7.7.3 4.7.5 9.4.5 14.1l-38.6.2c-13.2.2-26.6.4-40 .6zm4.7-30.4c-.3-.4-.4-.8-.4-1.1 0-.4.1-.7.3-1 .4-.5 1.2-.7 1.9-.6.7.1 1.5.5 1.8 1.1.2.3.2.6.1 1s-.4.7-.7 1.1c.4-.1.8-.4 1.1-.9.3-.4.3-1.1.1-1.6-.4-1-1.4-1.6-2.4-1.8-.5-.1-1-.1-1.5.1s-1 .5-1.2 1c-.2.4-.3 1-.2 1.5.3.6.7 1 1.1 1.2zM41 209.2c-.7-2.7-1.6-5.3-2.8-7.8-1.2-2.5-2.7-4.9-4.5-7-1.8-2.1-3.8-4.1-6.2-5.4 1.1.8 2.1 1.8 3 2.8 1 1 1.8 2 2.6 3.1 1.6 2.2 3 4.5 4.2 7 .6 1.2 1.2 2.4 1.6 3.7.5 1.2.9 2.6 1.4 3.8.4 1.3.7 2.6 1.1 3.9.3 1.3.6 2.7.9 4-.1-1.4-.3-2.7-.5-4.1-.2-1.3-.4-2.6-.8-4zm125.6-13.9c-1.8 1.9-3.3 4.1-4.5 6.4-1.2 2.3-2.2 4.8-3 7.3-.4 1.2-.6 2.5-1 3.8l-.6 3.9c.4-1.2.7-2.5 1.1-3.7.4-1.2.8-2.5 1.2-3.7.2-.6.5-1.2.7-1.8s.5-1.2.8-1.8c.5-1.2 1.1-2.3 1.7-3.5 1.2-2.2 2.6-4.4 4.2-6.4.8-1 1.7-1.9 2.6-2.9.9-.9 1.9-1.8 3-2.4-2.4 1.1-4.4 2.9-6.2 4.8z" fill="#333333" stroke-width="none" opacity="1"></path></g><g id="svga-group-head" transform="matrix(1,0,0,1,0,0)"><g id="svga-group-ears-left-move" transform="matrix(1,0,0,1,0,0)"><g id="svga-group-ears-left"><path id="SvgjsPath10039" d="M62.9 100.1s-1.8-5-3.3-7.9-3.6-6.4-6.7-7.2c-3.1-.8-4.1 3.9-2.9 8.3 1.2 4.4 4.3 13.9 5 17.7.7 3.7 1.8 8.2 3.6 7.5 1.7-.7 7.2-7.7 4.3-18.4z" fill="#f0c7b1" stroke-width="none" opacity="1"></path><path id="SvgjsPath10040" d="M63.8 105.1c.2 1.7.1 3.4-.1 5.1-.5 3.3-1.9 6.4-4 8.4l-.4.3c-.2.1-.3.2-.5.3-.4.2-.9 0-1.3-.3-.8-.6-1.2-1.5-1.5-2.3-.6-1.7-.9-3.3-1.3-5-.3-1.6-.7-3.2-1.1-4.8l-1.3-4.9c-.4-1.6-.9-3.2-1.3-4.8l-.7-2.4c-.2-.8-.5-1.6-.6-2.5-.2-.8-.3-1.7-.3-2.6s.1-1.7.3-2.6c.2-.8.6-1.6 1.2-2.1s1.4-.6 2.1-.5c1.4.3 2.7 1.2 3.7 2.4 1.1 1.2 1.9 2.6 2.6 4.1.8 1.4 1.4 3 2 4.5.6 1.6 1.2 3.1 1.7 4.7.3 1.6.7 3.3.8 5zm-5.1-13.7c-.9-1.4-1.7-2.6-2.7-3.7-1-1-2.1-1.8-3.2-2.2-.6-.2-1.1-.1-1.6.2-.5.3-.8.9-1.1 1.6-.5 1.4-.5 3.1-.2 4.7.1.8.3 1.6.6 2.4.2.8.5 1.6.7 2.4l1.5 4.8c.5 1.6 1.1 3.2 1.5 4.8.5 1.6 1 3.2 1.3 4.9.4 1.6.7 3.3 1.3 4.7.3.7.6 1.4 1 1.6.2.1.3.2.5.1.1 0 .2-.1.3-.2l.3-.3c.9-.8 1.7-2 2.4-3.2.7-1.3 1.2-2.7 1.6-4.2.8-3 .7-6.5-.2-9.7-1-3.1-2.3-6.1-4-8.7z" fill="#e1ac8f" stroke-width="none" opacity="1"></path><path id="SvgjsPath10041" d="M50.9 88.1c1.9-.8 3.6 1.4 4.8 3.3 1.6 2.5 2.7 5.5 3 8.7v.2c0 .3 0 .5.1.8 0 .2-.2.2-.2 0-.1-.4-.2-.9-.3-1.4-.1-.1-.1-.2-.2-.4-1.2-.6-1.8-.3-1.8.8 0 .7.2 1.5.3 2.2.3 1.2.9 2.3 1.3 3.5.1.2-.2.4-.3.2-.9-1.6-2.6-5.3-1.5-7.2.5-.9 1.4-.8 1.9-.2-.5-2-1.2-4.3-2.2-6.2-2.1 4.5-1 9.2.1 14.2 0 .2-.2.3-.3.1-1.4-4.6-2.7-10.8 0-14.5-1-2.2-2.6-3.9-4.6-3.7-.1 0-.2-.3-.1-.4z" fill="#d19271" stroke-width="none" opacity="1"></path><path id="SvgjsPath10042" d="M58.6 108.1c.2 1.1 0 2.4-.6 3.2-.1.1-.2 0-.1-.1.3-1 .6-1.9.6-3.1 0-.1.1-.1.1 0z" fill="#d19271" stroke-width="none" opacity="1"></path></g></g><g id="svga-group-ears-right-move" transform="matrix(1,0,0,1,0,0)"><g id="svga-group-ears-right"><path id="SvgjsPath10043" d="M137.1 100.1s1.8-5 3.3-7.9 3.6-6.4 6.7-7.2c3.1-.8 4.1 3.9 2.9 8.3-1.2 4.4-4.3 13.9-5 17.7s-1.8 8.2-3.6 7.5c-1.7-.7-7.2-7.7-4.3-18.4z" fill="#f0c7b1" stroke-width="none" opacity="1"></path><path id="SvgjsPath10044" d="M137.1 100.1c.6-1.6 1.1-3.1 1.7-4.7.6-1.5 1.2-3.1 2-4.5.7-1.5 1.6-2.9 2.6-4.1s2.3-2.1 3.7-2.4c.7-.2 1.5 0 2.1.5s1 1.3 1.2 2.1c.2.8.3 1.7.3 2.6s-.1 1.7-.3 2.6c-.1.9-.4 1.7-.6 2.5l-.7 2.4c-.5 1.6-.9 3.2-1.3 4.8l-1.3 4.9c-.4 1.6-.8 3.2-1.1 4.8-.3 1.7-.7 3.3-1.3 5-.3.8-.7 1.7-1.5 2.3-.4.3-.9.4-1.3.3-.2-.1-.4-.2-.5-.3l-.4-.3c-2.1-2-3.5-5.1-4-8.4-.3-1.7-.3-3.4-.1-5.1 0-1.7.4-3.4.8-5zm.1 0c-.9 3.2-1 6.7-.2 9.7.4 1.5.9 2.9 1.6 4.2.7 1.3 1.5 2.4 2.4 3.2l.3.3c.1.1.2.1.3.2.2.1.3 0 .5-.1.4-.3.7-.9 1-1.6.6-1.4.9-3.1 1.3-4.7.3-1.7.8-3.3 1.3-4.9l1.5-4.8 1.5-4.8c.2-.8.5-1.6.7-2.4l.6-2.4c.3-1.6.2-3.3-.2-4.7-.2-.7-.6-1.3-1.1-1.6-.5-.3-1-.3-1.6-.2-1.2.3-2.3 1.1-3.2 2.2-1 1.1-1.8 2.3-2.7 3.6-1.6 2.7-2.9 5.7-4 8.8z" fill="#e1ac8f" stroke-width="none" opacity="1"></path><path id="SvgjsPath10045" d="M149.1 88.1c-1.9-.8-3.6 1.4-4.8 3.3-1.6 2.5-2.7 5.5-3 8.7v.2c0 .3 0 .5-.1.8 0 .2.2.2.2 0 .1-.4.2-.9.3-1.4.1-.1.1-.2.2-.4 1.2-.6 1.8-.3 1.8.8 0 .7-.2 1.5-.3 2.2-.3 1.2-.9 2.3-1.3 3.5-.1.2.2.4.3.2.9-1.6 2.6-5.3 1.5-7.2-.5-.9-1.4-.8-1.9-.2.5-2 1.2-4.3 2.2-6.2 2.1 4.5 1 9.2-.1 14.2 0 .2.2.3.3.1 1.4-4.6 2.7-10.8 0-14.5 1.2-2.2 2.8-3.9 4.7-3.8 0 .1.1-.2 0-.3z" fill="#d19271" stroke-width="none" opacity="1"></path><path id="SvgjsPath10046" d="M141.4 108.1c-.2 1.1 0 2.4.6 3.2.1.1.2 0 .1-.1-.3-1-.6-1.9-.6-3.1 0-.1-.1-.1-.1 0z" fill="#d19271" stroke-width="none" opacity="1"></path></g></g><g id="svga-group-faceshape-wrap"><g id="svga-group-faceshape-single"><path id="SvgjsPath10127" d="M143.2 82v-.3c-1.3-29.9-20.7-46.4-43.2-46.4S58.1 51.8 56.9 81.7v.3c.1 9.4-.6 25.5 2 31.6 1.3 3.1 13.8 23.8 23.4 34.2 5.5 6.1 8.4 6.5 17.7 6.5 9.3 0 12.2-.4 17.7-6.5 9.6-10.4 22.1-31.1 23.4-34.2 2.6-6.1 1.9-22.2 2.1-31.6z" fill="#f0c7b1" stroke-width="none" opacity="1"></path><path id="SvgjsPath10128" d="M117.7 147.8c9.6-10.4 22.1-31.1 23.4-34.2 2.6-6.1 1.9-22.2 2.1-31.6v-.3c-1.3-29.9-20.7-46.4-43.2-46.4S58.1 51.8 56.9 81.7v.3c.1 9.4-.6 25.5 2 31.6 1.3 3.1 13.8 23.8 23.4 34.2 5.5 6.1 8.4 6.5 17.7 6.5s12.2-.4 17.7-6.5zm-30.3 1.4c-1.2-.9-2.3-2-3.4-3.2-2.3-2.4-4.4-6-6.5-8.6-4.2-5.3-8.1-10.8-11.9-16.3-.9-1.4-1.9-2.8-2.8-4.2-.5-.7-.9-1.4-1.3-2.1l-.6-1c-.2-.3-.4-.6-.5-1-.6-1.3-.9-2.9-1.2-4.5s-.5-3.3-.7-4.9c-.6-6.7-.7-13.5-.8-20.3 0-6.7 1.1-13.4 3.6-19.7.1-.4.3-.8.4-1.2l.6-1.1 1.1-2.2c.3-.8.8-1.4 1.3-2.2l1.3-2.1 1.5-2c.5-.6 1-1.3 1.6-1.9 1.2-1.2 2.2-2.4 3.5-3.4.6-.5 1.3-1.1 1.9-1.6l2-1.4 1-.7c.3-.2.7-.4 1.1-.6l2.1-1.2c.7-.4 1.5-.6 2.2-1 .8-.3 1.5-.7 2.3-.9 1.6-.5 3.1-1 4.7-1.3 6.3-1.4 12.9-1.5 19.2-.1l2.4.5 2.3.7c1.6.4 3 1.1 4.5 1.7.8.3 1.4.8 2.1 1.1.7.4 1.5.7 2.1 1.2 1.3.9 2.8 1.7 4 2.8 5.1 4.1 9.3 9.5 12 15.6 2.7 6.1 4.1 12.9 4.4 19.6-.1 3.4-.1 6.8-.2 10.2-.1 3.4-.2 6.8-.6 10.2-.3 3.3-.8 6.8-1.8 9.8l-.5 1.1c-.2.3-.4.7-.6 1-.4.7-.9 1.4-1.3 2.1-.9 1.4-1.9 2.8-2.9 4.2-2 2.8-4 5.5-6 8.2-1 1.3-2 2.7-3.1 4-1 1.3-2.1 2.7-3.1 4-2.1 2.6-4.2 6.2-6.5 8.6-2.2 2.5-4.4 4.7-6.9 5.5-2.5.9-5.8.9-9.2.9-3.3 0-6.8.1-9.4-.6-1.1-.2-2.2-.8-3.4-1.7z" fill="#c27b55" stroke-width="none" opacity="1"></path></g></g><g id="svga-group-mouth-single-move" transform="matrix(1,0,0,1,0,0)"><g id="svga-group-mouth-single"><path id="SvgjsPath10218" d="M89.47 129.26c7.15 4.25 15.5 3.75 21.52.68.34-.17.08-.61-.24-.56-3.56.54-6.71 1.36-10.36 1.39-3.63.03-7.5-.8-10.8-1.91-.31-.1-.22.35-.12.4z" fill="#d19271" stroke-width="none" opacity="1" transform="translate(0 2)"></path><path id="SvgjsPath10219" d="M108.72 128.48c-2.29.41-4.47 1.09-6.8 1.27-2.34.18-4.58-.1-6.9-.33-.24-.02-.29.35-.08.41 4.27 1.17 9.93 1.12 13.97-.81.32-.15.12-.59-.19-.54z" fill="#f8d5c3" stroke-width="none" opacity="1" transform="translate(0 2)"></path><path id="SvgjsPath10220" d="M99.53 122.55c-3.63-.05-7.67.28-9.65.6-3.06.5-4.82-.23-4.95.4-.09.41 5.65 1.29 7.28 1.43 1.63.13 4.66 1.62 7.09 1.88 2.43.27 4.02-.95 5.95-1.39 1.93-.43 6.6-.78 8.04-1 1.9-.26 3.41-1.29.32-1.14-.46.02-.93.01-1.39-.03-2.66-.26-8.31-.69-12.69-.75z" fill="#da7c87" stroke-width="none" opacity="1" transform="translate(0 2)"></path></g></g><g id="svga-group-eyes-left-move" transform="matrix(1,0,0,1,0,0)"><g id="svga-group-eyes-left"><g id="svga-group-eyesback-left"><path id="SvgjsPath10083" d="M90.4 96.5S89 94 86.9 92.3c-2.1-1.7-5.6-2.5-8.1-2.3-2.5.2-7.1 1.8-9.6 5.5 0 0 2.3 1.2 5.6 1.8 3.3.6 8.9 1.1 12 .4 3-.6 3.6-1.2 3.6-1.2z" fill="#ffffff" stroke-width="none" opacity="1"></path></g><g id="svga-group-eyesiriswrapper-left" transform="matrix(1,0,0,1,0,0)"><g id="svga-group-eyesiriscontrol-left" transform="matrix(1,0,0,1,0,0)"><g id="svga-group-eyesiris-left"><path id="SvgjsPath10162" d="M80.1 88.1c3 0 5.5 2.4 5.5 5.5S83.1 99 80.1 99s-5.5-2.4-5.5-5.5 2.4-5.4 5.5-5.4z" fill="#7b5c33" stroke-width="none" opacity="1"></path><path id="SvgjsPath10163" d="M80.1 99.3c-3.2 0-5.7-2.6-5.7-5.7 0-3.2 2.6-5.7 5.7-5.7 3.2 0 5.7 2.6 5.7 5.7s-2.6 5.7-5.7 5.7zm0-11c-2.9 0-5.2 2.3-5.2 5.2s2.3 5.2 5.2 5.2 5.2-2.3 5.2-5.2c-.1-2.8-2.4-5.2-5.2-5.2z" fill="#5c3d14" stroke-width="none" opacity="1"></path><path id="SvgjsPath10164" d="M80.1 90.6c1.6 0 2.9 1.3 2.9 2.9s-1.3 2.9-2.9 2.9-2.9-1.3-2.9-2.9 1.2-2.9 2.9-2.9z" fill="#000000" stroke-width="none" opacity="1"></path><path id="SvgjsPath10165" d="M78.7 90.5c.6 0 1 .5 1 1s-.5 1-1 1-1-.5-1-1 .5-1 1-1zm3.4 4.7c.2 0 .4.2.4.4s-.2.4-.4.4-.4-.2-.4-.4.2-.4.4-.4z" fill="#ffffff" stroke-width="none" opacity="1"></path></g></g></g><g id="svga-group-eyesfront-left"><path id="SvgjsPath10091" d="M74.8 97.4c3.3.6 8.9 1.1 12 .4s3.6-1.3 3.6-1.3-1.4-2.5-3.5-4.2-5.6-2.5-8.1-2.3c-2.5.2-6.8 1.7-9.3 5.2v-.7c0-6.4 4.7-11.5 10.6-11.5s10.6 5.2 10.6 11.5S86 106 80.1 106c-5.5 0-10.1-4.6-10.6-10.5.6.5 2.6 1.4 5.3 1.9z" fill="#f0c7b1" stroke-width="none" opacity="1"></path><path id="SvgjsPath10092" d="M90.9 98c-3.6 2.6-8.4 4.1-12.9 3.7-.2 0-.2-.2 0-.2 4.7-.5 8.5-1.4 12.7-3.7.3-.2.4.1.2.2z" fill="#e1ac8f" stroke-width="none" opacity="1"></path><path id="SvgjsPath10093" d="M69.2 95.7c5.5 4.1 15.4 3.7 21.5 1.5.3-.1.5-.5.3-.8-4.8-9.2-16.2-9.3-22-1-.1.1.1.3.2.3zm10.9 1.9c-3.7-.2-7-1.3-10.5-2.2 5.7-6.8 15.6-6.8 20.2.9-3.2 1.1-6.4 1.5-9.7 1.3z" fill="#000000" stroke-width="none" opacity="1"></path></g></g></g><g id="svga-group-eyes-right-move" transform="matrix(1,0,0,1,0,0)"><g id="svga-group-eyes-right"><g id="svga-group-eyesback-right"><path id="SvgjsPath10084" d="M109.6 96.5s1.4-2.5 3.5-4.2c2.1-1.7 5.6-2.5 8.1-2.3 2.5.2 7.1 1.8 9.6 5.5 0 0-2.3 1.2-5.6 1.8-3.3.6-8.9 1.1-12 .4-3-.6-3.6-1.2-3.6-1.2z" fill="#ffffff" stroke-width="none" opacity="1"></path></g><g id="svga-group-eyesiriswrapper-right" transform="matrix(1,0,0,1,0,0)"><g id="svga-group-eyesiriscontrol-right" transform="matrix(1,0,0,1,0,0)"><g id="svga-group-eyesiris-right"><path id="SvgjsPath10166" d="M119.9 88.1c3 0 5.5 2.4 5.5 5.5S123 99 119.9 99s-5.5-2.4-5.5-5.5 2.5-5.4 5.5-5.4z" fill="#7b5c33" stroke-width="none" opacity="1"></path><path id="SvgjsPath10167" d="M119.9 99.3c-3.2 0-5.7-2.6-5.7-5.7 0-3.2 2.6-5.7 5.7-5.7 3.2 0 5.7 2.6 5.7 5.7s-2.5 5.7-5.7 5.7zm0-11c-2.9 0-5.2 2.3-5.2 5.2s2.3 5.2 5.2 5.2 5.2-2.3 5.2-5.2c0-2.8-2.3-5.2-5.2-5.2z" fill="#5c3d14" stroke-width="none" opacity="1"></path><path id="SvgjsPath10168" d="M119.9 90.6c1.6 0 2.9 1.3 2.9 2.9s-1.3 2.9-2.9 2.9-2.9-1.3-2.9-2.9 1.3-2.9 2.9-2.9z" fill="#000000" stroke-width="none" opacity="1"></path><path id="SvgjsPath10169" d="M118.6 90.5c.6 0 1 .5 1 1s-.5 1-1 1-1-.5-1-1 .5-1 1-1zm3.4 4.7c.2 0 .4.2.4.4s-.2.4-.4.4-.4-.2-.4-.4.2-.4.4-.4z" fill="#ffffff" stroke-width="none" opacity="1"></path></g></g></g><g id="svga-group-eyesfront-right"><path id="SvgjsPath10094" d="M125.2 97.4c-3.3.6-8.9 1.1-12 .4s-3.6-1.3-3.6-1.3 1.4-2.5 3.5-4.2 5.6-2.5 8.1-2.3c2.5.2 6.8 1.7 9.3 5.2v-.7c0-6.4-4.7-11.5-10.6-11.5s-10.6 5.2-10.6 11.5S114 106 119.9 106c5.5 0 10.1-4.6 10.6-10.5-.6.5-2.6 1.4-5.3 1.9z" fill="#f0c7b1" stroke-width="none" opacity="1"></path><path id="SvgjsPath10097" d="M109.1 98c3.6 2.6 8.4 4.1 12.9 3.7.2 0 .2-.2 0-.2-4.7-.5-8.5-1.4-12.7-3.7-.3-.2-.4.1-.2.2z" fill="#e1ac8f" stroke-width="none" opacity="1"></path><path id="SvgjsPath10098" d="M131 95.4c-5.8-8.3-17.3-8.2-22 1-.2.3 0 .7.3.8 6.1 2.2 16 2.6 21.5-1.5.1 0 .3-.2.2-.3zm-20.8.9c4.6-7.7 14.5-7.7 20.2-.9-3.5.9-6.8 2-10.5 2.2-3.3.2-6.5-.2-9.7-1.3z" fill="#000000" stroke-width="none" opacity="1"></path></g></g></g><g id="svga-group-facehighlight-single"></g><g id="svga-group-eyebrows-left-move" transform="matrix(1,0,0,1,0,0)"><g id="svga-group-eyebrows-left-rotate" transform="matrix(1,1.7453292519943295e-9,-1.7453292519943295e-9,1,1.4396088943158247e-7,-1.3696939049623325e-7)"><g id="svga-group-eyebrows-left"><path id="SvgjsPath9999" d="M67.6 82.5c.1-.5.6-.7 1-1 .3-.2.7-.5 1-.7 0-.1 0-.2.1-.3 1.1-1.1 2.9-1.6 4.4-2.1.8-.8 2.1-.7 3.3-.4 1.4-.5 3.4.2 4.5.9.1.1.2.1.2.2.1 0 .3.1.4.1.8.2 1.4.4 1.9 1 1.2.5 2.4 1.1 3.2 2.1.6.2 1.2.5 1.7 1 .2.1.4.2.5.4h.2c.2 0 .4.2.6.3v-.2c-.1-.2.2-.3.3-.1.5.7.6 1.8.1 2.5 0 .1-.1.3-.1.4-.3.4-.6.5-.9.5-.6.2-1.2.2-1.7-.2-2-.1-4.2-1.3-5.9-2.3-.9-.5-2.5-1.3-3.5-2.3-.9-.1-1.8-.3-2.7-.5-1.1-.2-2.3-.2-3.3-.6-.2.1-.4.1-.6.2-.5.3-1.1.6-1.6.8-.6.3-1.2.6-1.9.6-.3 0-.5.2-.8.2-.3 0-.5-.3-.4-.5z" fill="#a46c47" stroke-width="none" opacity="1"></path><path id="SvgjsPath10000" d="M85.9 81.1c0-.1.1-.3.3-.1 1.3 1.3 1.8 3.6 1 5.3-.1.2-.4.1-.4-.1-.1-.1-.1-.2-.2-.3-.1-.1.1-.2.2-.2h.1c.1-.7.2-1.4 0-2.1-.2-.8-.6-1.6-1-2.5zm1.8.7c1.3 1.2 2.6 3.4 1.9 5.3-.1.2-.4.2-.4-.1.1-2-.9-3.2-1.8-4.9-.2-.3.1-.5.3-.3zm-8-3.4c3.3.5 5.1 4.2 5.8 7.1.1.2-.2.3-.3.1-.7-1.2-1.1-2.6-1.9-3.8-1-1.4-2.4-2.2-3.7-3.1-.2-.1-.1-.3.1-.3zm-2.6-.7c1.1 1 1.8 2.4 2.8 3.5 1.1 1.2 2.3 2.1 3.6 3 .2.1 0 .4-.2.3-2.9-1.3-4.9-3.8-6.7-6.4-.3-.3.2-.6.5-.4zm-2.4.3c.8.1 1.3.9 1.8 1.5.4.5.7 1 1.3 1.3.5.3.9.6 1.3 1 .2.2-.1.5-.3.3-.8-.6-1.7-.9-2.4-1.7-.3-.3-.5-.7-.8-1.1-.3-.4-.7-.6-1-1-.2 0-.1-.3.1-.3zm-5.3 3c1.5-1.4 4.2-1.4 5.8-.2.2.1.1.4-.2.4-1.1-.3-2.1-.6-3.3-.4-.8.2-1.4.6-2.2.6-.2-.1-.3-.3-.1-.4z" fill="#b38160" stroke-width="none" opacity="1"></path><path id="SvgjsPath10001" d="M90.6 82.6c-.1-.1-.2 0-.2.1.2.7.7 1.5.7 2.3 0 1.6-1.5 1.9-2.7 1.6-.6-.1-1.2-.3-1.8-.6.3-1.7-.2-3.7-1.2-5.3 1.5 1 2.9 2.3 4.5 2.9.2.1.4-.2.3-.4-1.3-1.9-4.1-3.2-6.1-4.2-2.2-1.1-4.4-1.8-6.9-1.7-2.3 0-4.5.6-6.4 1.9-2.1 1.4-3.7 3.3-5.5 4.9-.4.4.2 1 .7.7 2.6-2.2 5.9-3.2 9.3-2.8 3.2.4 5.8 2.3 8.5 3.8 1.8 1 4.7 2.5 6.8 1.6 2-1 1.1-3.5 0-4.8zm-14.1-4.4c-.1.1-.1.1-.1.2.3 1 1 1.9 1.7 2.7.2.3.4.5.6.8-.3-.1-.6-.2-.8-.3-.1 0-.2-.1-.3-.1-1.2-.7-2.2-1.6-3.4-2.4-.1-.1-.3.1-.2.2.5.7 1.1 1.3 1.8 1.7-.2 0-.5-.1-.7-.1-.2-.1-.3-.2-.5-.3-.1-.1-.2-.1-.3-.2-.1 0-.2-.1-.3-.1-.1-.1-.2.1-.1.2l.2.2c.1.1.2.1.2.1-2.1-.1-4.2.4-6.2 1.3 2.4-2.1 5.2-3.6 8.4-3.9zm9.5 7.6c-.6-.2-1.1-.5-1.6-.8-1.4-.8-2.9-1.7-4.3-2.5-.5-.6-.9-1.2-1.4-1.8-.6-.8-1.1-1.8-1.8-2.5h.8c2.4.1 4.5.9 6.6 2 .5.9 1 1.8 1.3 2.8.3.9.3 1.9.4 2.8z" fill="#955932" stroke-width="none" opacity="1"></path></g></g></g><g id="svga-group-eyebrows-right-move" transform="matrix(1,0,0,1,0,0)"><g id="svga-group-eyebrows-right-rotate" transform="matrix(1,1.7453292519943295e-9,-1.7453292519943295e-9,1,1.4379463664226932e-7,-2.1214947309999843e-7)"><g id="svga-group-eyebrows-right"><path id="SvgjsPath10002" d="M132.4 82.5c-.1-.5-.6-.7-1-1-.3-.2-.7-.5-1-.7 0-.1 0-.2-.1-.3-1.1-1.1-2.9-1.6-4.4-2.1-.8-.8-2.1-.7-3.3-.4-1.4-.5-3.4.2-4.5.9-.1.1-.2.1-.2.2-.1 0-.3.1-.4.1-.8.2-1.4.4-1.9 1-1.2.5-2.4 1.1-3.2 2.1-.6.2-1.2.5-1.7 1-.2.1-.4.2-.5.4h-.2c-.2 0-.4.2-.6.3v-.2c.1-.2-.2-.3-.3-.1-.5.7-.6 1.8-.1 2.5 0 .1.1.3.1.4.3.4.6.5.9.5.6.2 1.2.2 1.7-.2 2-.1 4.2-1.3 5.9-2.3.9-.5 2.5-1.3 3.5-2.3.9-.1 1.8-.3 2.7-.5 1.1-.2 2.3-.2 3.3-.6.2.1.4.1.6.2.5.3 1.1.6 1.6.8.6.3 1.2.6 1.9.6.2.2.5.3.8.3.3-.1.5-.4.4-.6z" fill="#a46c47" stroke-width="none" opacity="1"></path><path id="SvgjsPath10003" d="M114.1 81.1c.1-.2-.1-.3-.2-.2-1.3 1.3-1.8 3.6-1 5.3.1.2.4.1.4-.1.1-.1.1-.2.2-.3.1-.1-.1-.2-.2-.2h-.1c-.1-.7-.2-1.4 0-2.1.1-.7.5-1.5.9-2.4zm-1.8.7c-1.3 1.2-2.6 3.4-1.9 5.3.1.2.4.2.4-.1-.1-2 .9-3.2 1.8-4.9.2-.3-.1-.5-.3-.3zm8-3.4c-3.3.5-5.1 4.2-5.8 7.1-.1.2.2.3.3.1.7-1.2 1.1-2.6 1.9-3.8 1-1.4 2.4-2.2 3.7-3.1.2-.1.1-.3-.1-.3zm2.6-.7c-1.1 1-1.8 2.4-2.8 3.5-1.1 1.2-2.3 2.1-3.6 3-.2.1 0 .4.2.3 2.9-1.3 4.9-3.8 6.7-6.4.3-.3-.2-.6-.5-.4zm2.4.3c-.8.1-1.3.9-1.8 1.5-.4.5-.7 1-1.3 1.3-.5.3-.9.6-1.3 1-.2.2.1.5.3.3.8-.6 1.7-.9 2.4-1.7.3-.3.5-.7.8-1.1.3-.4.7-.6 1-1 .2 0 .1-.3-.1-.3zm5.3 3c-1.5-1.4-4.2-1.4-5.8-.2-.2.1-.1.4.2.4 1.1-.3 2.1-.6 3.3-.4.8.2 1.4.6 2.2.6.2-.1.3-.3.1-.4z" fill="#b38160" stroke-width="none" opacity="1"></path><path id="SvgjsPath10004" d="M109.5 87.3c2.1.9 4.9-.6 6.8-1.6 2.8-1.5 5.3-3.4 8.5-3.8 3.4-.4 6.7.6 9.3 2.8.4.4 1.1-.3.6-.7-1.9-1.6-3.4-3.6-5.5-4.9-1.9-1.2-4.1-1.8-6.4-1.9-2.4 0-4.7.7-6.9 1.7-2 1-4.8 2.3-6.1 4.2-.1.2.1.5.3.4 1.6-.6 3-1.9 4.5-2.9-1 1.6-1.6 3.6-1.2 5.3l-1.8.6c-1.3.3-2.7 0-2.7-1.6 0-.8.4-1.6.7-2.3 0-.1-.1-.2-.2-.1-1.1 1.4-2 3.9.1 4.8zm22.3-5.1c-1.9-.9-4-1.4-6.2-1.3.1 0 .2-.1.2-.1l.2-.2c.1-.1 0-.3-.1-.2-.1 0-.2.1-.3.1-.1 0-.2.1-.3.2-.2.1-.4.2-.5.3-.2 0-.5.1-.7.1.7-.5 1.4-1 1.8-1.7.1-.1-.1-.3-.2-.2-1.2.8-2.2 1.7-3.4 2.4-.1 0-.2.1-.3.1-.3.1-.6.2-.8.3.2-.2.4-.5.6-.8.6-.8 1.3-1.7 1.7-2.7 0-.1 0-.2-.1-.2 3.3.2 6.1 1.7 8.4 3.9zm-17.4.8c.3-1 .8-1.9 1.3-2.8 2.1-1.1 4.2-1.9 6.6-2h.8c-.7.7-1.2 1.7-1.8 2.5-.4.6-.9 1.2-1.4 1.8-1.5.8-2.9 1.7-4.3 2.5-.5.3-1.1.6-1.6.8.1-.9.1-1.9.4-2.8z" fill="#955932" stroke-width="none" opacity="1"></path></g></g></g><g id="svga-group-beardwrap"><g id="svga-group-beard-single-move" transform="matrix(1,0,0,1,0,0)"><g id="svga-group-beard-single"><path id="SvgjsPath9989" d="M143.3 88.3c-.4-1.3-2.9-2.1-3.2.2-1.5 10.8-5.7 31.9-11.1 35.3-1.3.6-2.2 1.4-3.8 1.6 1-.4 1.8-1 2.6-1.6 1.9-1.3 6.4-5.2 2.2-9.9-3.2-3.6-6.2 1.5-6.2 1.5s1-.9 2.9-.6c3 .4 1.6 4.5-2.7 5.2s-4.6-3-11.2-2.7c-6.7.4-12.4 2.3-12.4 2.3s-5.3-1.9-12-2.3c-6.7-.4-6.8 3.4-11.2 2.7-4.4-.8-5.8-4.8-2.7-5.2 1.9-.3 2.9.6 2.9.6s-3-5.1-6.2-1.5c-4.2 4.7.3 8.6 2.2 9.9.5.3.9.7 1.4 1-1.7 0-4.6-1.6-5.9-3.5-1.9-2.8-6.1-14-7.2-19.5-.7-3.5-1.5-13.1-1.7-14.1s-2.8-.6-3.4.6-2.4 21.3-2.4 21.3c-.3 7.3-.9 16.5 2.1 22.1 1.8 3.9 10.5 15.7 10.5 15.7l-.6-2.1c4.8 4.6 15.2 12.2 15.2 12.2l-.2-1.3C84.7 159 98 167.5 98 167.5l.2-1.3 2.1 1.5s4.9-.6 7.8-2.7 10.5-8.2 10.5-8.2l.2 1.5c4.6-4 11.2-10.8 11.2-10.8l-.6 2.9s13-13.9 14.6-18.5c1.3-3.7 2.3-8.9 2-17.7-.7-12.7-2.4-24.5-2.7-25.9zm-25.1 44.6c-1.1 1.3-11 11-11.4 10.5-.4-.6-1.1-5.3-1.1-5.3-1.7.6-12.9-.2-12.9-.2 0 1.1-1.1 5.5-1.1 5.5l-10.7-11s0-4.3-.3-6.2c.3 0 .5 0 .8-.1 4.8-.4 15.1-.7 19-1.9 3.7 1.1 13.4 1.5 18.4 1.8 0 1.5.2 5.8-.7 6.9z" fill="#543c32" stroke-width="none" opacity="1"></path><path id="SvgjsPath9990" d="M56.1 98.9c.3-2.6.5-5.3.8-7.9 0-.2-.1-.2-.2-.2l.3-2.7c0-.2-.3-.2-.3 0-.2 1.7-.4 3.3-.5 4.9v.1c-.3 1.9-.5 3.8-.4 5.8-.1.2.3.2.3 0zm-.5 8c.2-2.9.2-5.8.3-8.7 0-.2-.3-.2-.3 0-.1 2.9-.3 5.8-.3 8.7 0 .2.3.2.3 0zm-1.9 3.8c-.3 4.7-.2 9.7.6 14.3 0 .1.2.1.2 0-.1-4.8-.4-9.6-.5-14.3-.1-.2-.3-.1-.3 0zm1.6-4.3c-.2.8-.3 1.7-.5 2.5.1-2.7.2-5.4.4-8.2 0-.2-.3-.2-.3-.1-.8 4.3-1.1 8.7-.7 13-.2 2.6-.1 5.1.3 7.6 0 .2.4.2.4-.1-.1-5-.1-9.9.6-14.9.2.1-.1.1-.2.2zm3.9 29.1v-.1c0-.1-.1-.1-.1-.2-.9-2.1-1.6-4.2-2.2-6.4.1.2.4.1.3-.1-1-4.8-1.7-9.4-1.6-14.3 0-.2-.2-.2-.3 0-.3 4-.1 8.1.9 12-.1 0-.3 0-.3.2.2 1.9.6 3.9 1.2 5.7-.8-1.5-1.5-3-2-4.8 0-.2-.3-.1-.3 0-.1-.9-.2-1.8-.3-2.6 0-.2-.2-.2-.3 0-.1 2.1.2 4.7 1.1 6.6 0 .1.2 0 .2-.1-.2-1-.5-2-.6-3 0-.2 0-.3-.1-.5.4 2.4 1.5 5 3.1 6.8.4 1 .9 1.9 1.5 2.9.1.2.5 0 .4-.2-.1-.6-.4-1.3-.6-1.9zm.4-6c0-.2-.3-.2-.3 0-.3 4.4.6 9.1 3.3 12.7.2.3.6 0 .5-.3-2.2-3.9-3.5-7.8-3.5-12.4zm2.8 6.8c-.1-.3-.5-.2-.5.1.6 4.1 2.2 8.1 5.2 11 .2.2.5-.1.3-.3-2.2-3.3-4.1-6.7-5-10.8zm2.4 3.8c-.1-.3-.6 0-.4.2 2.1 4.4 5.1 8.5 9 11.5.2.1.4-.1.2-.3-3.5-3.4-6.5-7-8.8-11.4zm5.8 5.3c-.2-.2-.5 0-.4.2 2.7 4 5.7 7.9 9.7 10.8.2.1.4-.2.2-.3-3.2-3.5-6.6-6.8-9.5-10.7zm17.5 14c-.1-.1-.1-.1-.2 0-.7-1.1-1.8-2.1-2.8-3-.2-.2-.6.1-.3.3 1.1 1.1 1.9 2.4 3 3.4.1.1.3.1.3-.1 1.1.9 2.2 1.9 3.3 2.8-3.1-2.2-6.3-4.3-9.4-6.5l.9.6c.2.1.5-.2.3-.4-2.4-2.2-4.9-4.1-7.1-6.6-.1-.2-.4.1-.3.2 1.4 1.8 3 3.7 4.9 5.2-.1-.1-.2-.1-.2-.2-.2-.1-.4.1-.2.2 3.7 3.1 7.6 6.1 11.9 8.4.2.1.3 0 .3-.2 1.9 1.5 3.8 2.9 5.8 4 .2.1.5-.2.3-.4-3.3-2.6-7.1-5-10.5-7.7zm9.2 5.5-1.6-1.8c.2.1.3.2.5.3.2.1.4-.1.2-.3-.6-.7-1.4-1.4-2.1-2.1-.4-.4-.8-.8-1.1-1.3l.8.8c.5.5 1 1.1 1.6 1.6.2.1.4 0 .3-.2-.9-1.2-2.1-2.2-3.1-3.2-.1-.1-.3 0-.3.1 0-.1-.1-.1-.1-.1-.1-.2-.4 0-.4.1-1-1.2-2.1-2.3-3.2-3.4-.2-.2-.4.1-.2.2 1.6 1.9 3.1 3.9 4.9 5.6.1.1.2 0 .3-.1.4.5.9 1 1.4 1.5-.2 0-.4.3-.2.6l2 2.2c.6.7 1.2 1.4 1.9 2 .2.2.5-.2.4-.4-.7-.8-1.4-1.4-2-2.1zm1.5-.2c-.2-.2-.6.1-.4.4.3.4.6.7 1 1 .2.1.3-.1.2-.2-.1-.4-.5-.8-.8-1.2zm-40.2-65c.2-2.3.2-4.6.2-6.9 0-.2-.3-.2-.3 0-.2 2.3-.3 4.6-.2 6.9 0 .2.3.2.3 0zm.9 8.6c.3-2.9.4-5.8.2-8.7 0-.2-.3-.2-.4 0-.3 2.9-.3 5.8-.2 8.7.1.2.4.2.4 0zm.3 6.5c.6-2.9.9-6.1 1.2-9.1 0-.2-.2-.2-.3 0-.6 3-1.1 6-1.3 9-.1.3.3.3.4.1zm1.3 4.9c.3-2.6.3-5.2.5-7.8 0-.2-.3-.2-.3 0-.2 2.6-.5 5.2-.5 7.8 0 .2.3.2.3 0zm.3 3.4c-.1 2.8-.1 5.7.3 8.4 0 .2.3.1.3 0-.1-2.8-.3-5.6-.2-8.4 0-.2-.4-.2-.4 0zm2.5 14.4c-.6-3.5-1-6.8-.7-10.3 0-.3-.4-.3-.5 0-.4 3.5-.4 7.1.7 10.4.1.3.6.2.5-.1zm2.9 4.4c-.8-2.7-1.6-5.4-2-8.1 0-.2-.4-.2-.4.1.3 2.8.9 5.6 2.1 8.2.1.1.4 0 .3-.2zm2.6 2.2c.1.2.4.1.4-.2-.7-2.1-1.7-4-2.3-6.1-.1-.3-.6-.2-.5.1.5 2.2 1.2 4.4 2.4 6.2zm3.3 1.4c.3.9.7 1.6 1.2 2.3.1.2.4.1.4-.1-.5-2-1.6-3.9-2.2-5.9-.1-.3-.5-.2-.4.1.2.8.4 1.6.6 2.5-.6-1.2-1.3-2.4-1.7-3.8-.1-.3-.6-.2-.5.1.5 1.6 1.2 3.4 2.3 4.8.1.1.2.1.3 0zm14.1 10.9c.2.1.4-.1.2-.2-1.5-1.7-3.2-3.4-4.7-5.1-.2-.3-.5-.7-.7-1-.2-.3-.6 0-.4.2.9 1.7 1.9 3.6 3.5 4.9.2.1.5 0 .3-.3-.1-.2-.2-.4-.4-.5.8.8 1.5 1.4 2.2 2zm2.2 1.2s.1 0 0 0c.9 1 1.8 2 2.8 2.8.1.1.3-.1.2-.2-1.6-1.7-3.2-3.3-4.5-5.1-.1-.1-.2-.1-.2 0-.1-.1-.2-.3-.3-.4-.2-.2-.4.1-.3.3.7.8 1.4 1.8 2.3 2.6zm8.8 5c-.2-.2-.5 0-.5.2l-.1-.1c-.5-.6-1.1-1.1-1.6-1.7-.1-.1-.4.1-.3.2.4.6.8 1.2 1.3 1.7.4.5.7 1.2 1.3 1.4.1 0 .2-.1.2-.1 0-.1-.1-.2-.1-.3l.7.7c.4.5.8 1.1 1.3 1.6.2.2.4 0 .3-.3-.4-1.3-1.5-2.4-2.5-3.3zm44.5-75.1c-.1-.2-.4 0-.4.1 1.1 2.3 1.8 4.6 2.3 7-.1-.1-.4 0-.3.1.4 4.8.6 9.7.9 14.6-.5-2.1-1-4.2-1.7-6.3-.1-.2-.5-.1-.4.1 1.9 6.5 3 13 3 19.8 0 .2.5.2.5-.1.1-4-.3-8-1.1-11.9.1 0 .1-.1.1-.1.4-4.4.1-8.8-.5-13.1.1 0 .2 0 .2-.1.1-3.5-.8-6.9-2.6-10.1zm1.1 43c-1.1 2.8-2.6 5.2-4.3 7.7-.2.2.2.5.4.3 2.2-2.1 3.6-5 4.3-7.9.1-.3-.3-.3-.4-.1zm.9-18c0-.2-.4-.2-.4 0 .5 5.3.5 10.6.8 15.9-.1.8-.2 1.6-.5 2.5-.4 1.4-1.1 2.6-1.9 3.9-.1.1-.1.2-.1.3-.1.2.1.4.3.2 1.1-1.4 2.1-3.3 2.6-5.2.1 0 .2-.1.2-.2.5-5.8-.2-11.8-1-17.4zm-11 31.3c-.9 2.2-2.3 4.1-3.8 5.9-.1.1.1.3.2.2 1.9-1.6 3.1-3.6 4-5.9.1-.3-.3-.5-.4-.2zm-3 1.7c-2.1 2.8-4.3 5.4-6.7 7.9.2-.4.4-.9.6-1.4.1-.2-.3-.4-.4-.1-.6 1.2-1.3 2.4-2.1 3.4-.4.4-.9.9-1.3 1.4-.1.1-.1.2 0 .3-.8.9-1.8 1.7-2.7 2.5-.1.1 0 .3.2.2 1.5-.8 2.8-2 3.9-3.3 3.7-2.8 7-6.6 9.1-10.6.1-.3-.4-.6-.6-.3zm-10.5 9c-2.1 2.8-4.5 5.3-6.8 7.9-.2.2.1.6.3.4 2.8-2.1 5.2-5.1 7-8 .2-.4-.3-.6-.5-.3zm-4.8 5.1c.3-.3-.2-.7-.4-.4-1.9 1.9-4 3.5-6.1 5.1.4-.5.9-1 1.3-1.5.1-.2-.1-.4-.2-.2-1.9 1.8-4 3.2-6 4.8-.2.2.1.4.3.3 1.2-.5 2.2-1.2 3.2-2 .1.1.2.1.3.1 2.8-1.4 5.4-3.8 7.6-6.2zm-10.4 5.7c-1.3.7-2.9 1.6-3.8 2.9-.1.2.1.4.3.3 1.3-.8 2.3-2 3.7-2.8.2-.1 0-.5-.2-.4zm-3.2 1.3c.1-.2-.2-.3-.3-.2-.2.3-.4.5-.4.8 0 .1.1.2.2.1.2-.1.3-.4.5-.7zm-24.9-17.2c-1.1-1.7-2.2-3.3-2.7-5.3-.1-.2-.4-.1-.3.1.5 2 1.3 4 2.8 5.4.1.2.3 0 .2-.2zM79 151c-.6-1.5-1.8-2.9-2.7-4.2-.2-.2-.5 0-.4.2.9 1.4 1.7 3 2.8 4.2.1.1.4 0 .3-.2zm2 1.2c-.6-1.7-1.8-3.3-2.6-5-.1-.2-.6-.1-.4.2.7 1.7 1.4 3.7 2.7 5 .1.1.4 0 .3-.2zm2.2 1.9c-.7-1.6-1.9-3.1-2.6-4.7-.1-.3-.7-.1-.5.2.7 1.6 1.5 3.5 2.8 4.8.2.2.4 0 .3-.3zm17.3 9.2c.1.5.3.9.4 1.4.1.4.2.9.5 1.3.2.2.6.2.6-.2s-.2-.9-.4-1.3c-.2-.5-.3-.9-.5-1.4-.2-.3-.7-.2-.6.2zm-30.8-32.2c-.2-1.6-.5-3.1-.9-4.7 0-.1-.2-.1-.2 0 .2 1.6.5 3.1.8 4.7.2.1.3.1.3 0zm1.5 3.3c-.4-1.7-.8-3.4-.9-5.2 0-.2-.3-.2-.3 0 .1 1.8.3 3.6.9 5.3.1.1.3.1.3-.1zm1.7 3.2c-.2-1.8-.6-3.6-1-5.4 0-.2-.3-.1-.3.1.3 1.8.5 3.6 1 5.4 0 .1.3 0 .3-.1zm.3-2.2c.2 1.8.7 3.5 1.7 5 .1.1.3 0 .2-.1-.8-1.6-1.3-3.2-1.6-4.9 0-.2-.3-.2-.3 0zm1.4 1.2c.4 1.9 1 3.8 2.2 5.4.1.1.3 0 .2-.1-.8-1.8-1.6-3.5-2-5.4-.1-.3-.4-.2-.4.1zm1.9 1.8c.7 2.1 1.5 4.4 2.8 6.2.1.1.4.1.3-.1-.9-2.1-1.9-4-2.7-6.2 0-.3-.5-.2-.4.1zm2.6 3.5c.6 1.3 1.1 2.7 1.9 3.8.1.2.4.1.3-.1-.4-1.4-1.2-2.7-1.8-3.9-.2-.3-.6-.1-.4.2zm1.7 1.6c.6 1.7 1.3 3.5 2.4 4.9.2.2.4-.1.3-.2-.7-1.6-1.6-3.1-2.3-4.7 0-.4-.4-.3-.4 0zm2 2.9c.9 1.7 1.9 3.5 3.2 4.8.2.1.4 0 .3-.2-1-1.6-2.2-3.1-3.2-4.8-.2-.2-.4 0-.3.2zm5.3 5.6c-.4-.9-1.2-1.8-1.7-2.7-.1-.1-.3 0-.2.1.6.9 1.1 1.9 1.7 2.7 0 .2.2 0 .2-.1zm2.2-4.4c0 2.5.7 5 2.3 6.9.2.2.4-.1.3-.2-1.1-2.2-1.9-4.2-2.2-6.6 0-.3-.4-.3-.4-.1zm5.7 10.9c-.9-2.1-2-4.1-2.8-6.3-.1-.2-.4-.1-.3.1.7 2.2 1.5 4.5 2.8 6.4.1.2.4.1.3-.2zm2.8 3.7c-1.1-2.1-2.3-4-3.1-6.3-.1-.3-.6-.2-.5.1.6 2.3 1.5 4.7 3.2 6.4.3.3.6.1.4-.2zm-4.9-16.1c-.1-2.4-.3-4.7-.3-7.1 0-.2-.3-.2-.4 0-.2 2.4-.3 4.8.2 7.1.1.4.5.3.5 0zm.3-2.7c-.5 2.5-.4 5.2.7 7.5.1.2.4.1.4-.2-.6-2.5-1-4.8-.7-7.3.1-.2-.3-.3-.4 0zm2.6 9.9c-.1-1.6-.4-3.1-.6-4.7 0-.3-.4-.3-.4 0 .1 1.6.1 3.2.6 4.7 0 .3.4.3.4 0zm6 6.8c0 .1.2.1.2 0 .1-1.6-.1-3.1-.2-4.7 0-.1-.2-.2-.3-.1v-.4c0-.1-.1 0-.1 0 .1.2 0 .4-.1.6 0 .1.1.1.1.1.1-.1.1-.2.1-.3v.1c.1 1.6.2 3.1.3 4.7zm1.5 1.6c.1-1.4 0-2.9.1-4.4 0-.2-.4-.2-.4 0-.1 1.4-.3 3-.1 4.4 0 .3.4.2.4 0zm1.6-.9c.2-1.4 0-3 0-4.4 0-.3-.5-.3-.5 0 0 1.4-.2 3 0 4.4.2.1.5.2.5 0zm-1.6-9.7c-.1-2.1-.7-4.2-1.2-6.2-.1-.2-.3-.1-.3.1.5 2 .8 4.1 1.2 6.1.1.1.4.1.3 0zm.6-3.6c-.2-1.1-.4-2.2-.7-3.3 0-.1-.3-.1-.2.1.2 1.1.4 2.2.7 3.3 0 0 .2 0 .2-.1zm.7-1.5c0-1.7-.5-3.5-1-5.2-.1-.2-.5-.1-.4.1.5 1.7.7 3.4 1 5.1 0 .2.4.2.4 0zm.8.1c-.1-2.2-.7-4.5-1.4-6.6 0-.1-.2-.1-.2.1.6 2.2.9 4.4 1.3 6.6 0 .2.3.1.3-.1zm4.3 6.5c-.3 2.9-.9 5.7-1.5 8.5-.1.2.2.3.3.1 1.1-2.7 1.5-5.7 1.5-8.6 0-.2-.3-.2-.3 0zm1.5 6.1c1-1.4 1.3-3.5 1.5-5.2 0-.3-.5-.3-.5 0-.1.9-.3 1.8-.5 2.7-.2.8-.6 1.6-.7 2.4-.1.1.1.2.2.1zm1.7-.6c1-1.4 1.5-3.3 1.8-4.9.1-.4-.5-.5-.5-.1-.4 1.7-1.2 3.2-1.7 4.8-.1.3.3.4.4.2zm1.8-1c.4-.5.5-1.1.8-1.7.3-.7.5-1.4.8-2.2.1-.4-.4-.5-.6-.1-.3.7-.5 1.4-.8 2-.2.6-.6 1.2-.6 1.8.1.2.3.3.4.2zm2.2-1.7c.7-1.2 1-2.6 1-4 0-.3-.4-.3-.5 0-.1 1.4-.5 2.6-.9 3.8 0 .2.3.4.4.2zm4-7.2c-.4 1.1-1 2.2-1.3 3.3 0 .1.2.2.2.1.6-1 .9-2.2 1.4-3.3.1-.3-.2-.4-.3-.1zm3.1-3.6c-.3.8-.6 1.7-.9 2.5-.3.8-.7 1.6-.9 2.5 0 .2.2.3.3.1.9-1.4 1.4-3.4 1.9-5 .2-.3-.3-.4-.4-.1zm.5 4c.6-1.3.9-2.9 1.2-4.2.1-.2-.3-.3-.4-.1-.5 1.3-1.1 2.8-1.2 4.2 0 .2.3.4.4.1zm2.8-4.8c-.1.5-.2.9-.3 1.4 0 .1.2.2.2 0 .2-.4.2-.9.3-1.4.1-.1-.2-.2-.2 0zm2.9-5.6c-.1 1.9-.5 3.7-.8 5.6 0 .3.4.3.5.1.7-1.7.8-3.8.8-5.6 0-.5-.5-.5-.5-.1zm1.2 4.8c.5-1.5.5-3.3.8-4.9 0-.2-.3-.4-.4-.1-.3 1.6-.8 3.4-.7 5 0 .2.3.2.3 0zm.7-1.8c0 .2.3.2.4.1.3-.6.3-1.3.4-1.9.1-.7.2-1.5.3-2.2.1-.3-.4-.5-.5-.1l-.4 2.3c-.1.6-.2 1.2-.2 1.8zm7.6-5c.1-.1-.2-.3-.3-.1-.7 1.3-1.4 2.7-2.1 4l-.6.9c.4-.9.7-1.9.9-2.8.1-.3-.3-.3-.4-.1-1.1 2.8-2.6 5.2-4.3 7.7-.2.2.2.5.4.3.6-.6 1.2-1.3 1.7-2h.1c2.1-2.1 3.6-5.2 4.6-7.9zm-5.4 3.4c.4-1.1.5-2.4.6-3.6.1-.3-.4-.4-.4-.1-.2 1.2-.5 2.4-.6 3.7 0 .1.4.2.4 0zm.6-5.5c0-3-.3-5.9-.6-8.9 0-.2-.4-.2-.4 0 .1 3 .1 6 .6 8.9 0 .3.4.2.4 0zm.7-3.6c0-1.6-.4-3.3-.6-4.9 0-.2-.4-.2-.4.1.2 1.6.3 3.3.7 4.9.1.1.3.1.3-.1zm.5-4.1c.1-1.6-.3-3.3-.5-5 0-.2-.3-.2-.3 0 .1 1.7 0 3.4.4 5 .1.3.4.3.4 0zm.8-5.5c.1-.7 0-1.6 0-2.3 0-.2-.4-.2-.4 0 0 .8-.1 1.6 0 2.3.1.2.4.2.4 0zm1-9.2c0-1.2-.3-2.5-.5-3.7 0-.3-.5-.2-.4.1.2 1.2.2 2.4.6 3.6 0 .3.3.2.3 0zm.8-2.4c0-1.6-.4-3.3-.7-4.9-.1-.2-.4-.1-.3.1.3 1.6.4 3.2.7 4.8 0 .2.3.2.3 0zM118 132.4c-.7 2.6-1.6 5-2.4 7.5-.1.2.3.4.4.2 1.3-2.3 2-4.9 2.4-7.6.1-.3-.3-.4-.4-.1zm-4.5 9.4c1-1.8 1.8-3.7 2.6-5.5.1-.2-.2-.4-.3-.2-.9 1.9-1.8 3.7-2.6 5.6 0 .2.2.2.3.1zm0-3.3c-.8 1.3-1.6 2.5-2.2 3.9-.1.1.1.2.2.1.9-1.2 1.7-2.5 2.4-3.7.1-.3-.3-.6-.4-.3zm-35.1-12c.7.1 1.3.2 2 .2-1 2.7-.5 6.6.9 9 .1.2.4.1.4-.1.3.9.7 1.7 1.2 2.6.1.2.5.1.4-.2-.9-2.5-1.8-4.9-2.5-7.5 0-.1-.1-.1-.1-.1 0-1.2.1-2.4.1-3.6 2.5.1 5.2-.4 7.6-.7 3.9-.4 7.8-.7 11.6-1.4.1 0 .1 0 .1-.1 5.3 1.2 12.2 2.8 18.4 2.2.1 2.3.3 4.5.2 6.8 0 .2.3.3.4.1.5-2.2.7-4.7.1-6.9 3.9-.4 7.5-1.7 10.2-4.4.2-.2-.1-.4-.3-.3-.5.4-.9.7-1.4 1 1.4-1.5 2.3-3.4 2.4-5.5 0-.2-.3-.2-.3 0-.4 2.4-1.4 4.5-3.1 6.1-1.7.9-3.4 1.4-5.2 1.8 2.3-1.1 4.3-3 5.1-5.4.1-.3-.3-.5-.5-.2-1.7 3-4.1 5.2-7.4 5.9-1.2.1-2.5 0-3.8-.1 3.6-.6 7-2.5 9.2-5.5.2-.2-.2-.4-.3-.3-3.4 3.3-7.2 5.3-11.7 5.4-4.3-.6-8.6-1.6-12.6-1.8.8-.9 1.2-2.1 1.1-3.2 0-.2-.4-.3-.5-.1-.3 1.7-1.1 2.9-2.4 3.9-3.3.3-7 1-10.6 1.3-2.9-.6-5.2-2.1-7.2-4.3-.2-.2-.5.1-.3.3 1.3 2.1 3.4 3.6 5.8 4.2-2.8.2-5.5.1-7.8-.6-.5-.4-1-.7-1.4-1.2-.7-.8-1.1-1.6-1.5-2.5-.1-.2-.3-.1-.3.1.2 1.1.9 2.2 1.8 3.1-2.8-1.2-5.1-3.4-6.4-7.3-.1-.2-.4-.1-.3.1 1 4.6 4.3 8.2 8.9 9.2zm7.5 15.1c-.7-1.9-1.7-3.7-2.7-5.5-.1-.2-.4 0-.3.2.8 1.9 1.6 3.7 2.7 5.4.1.2.4.1.3-.1zm-.2-2.1c.6 1.2 1.2 2.6 2.1 3.6.2.2.5 0 .4-.2-.4-1.3-1.3-2.5-2-3.6-.3-.3-.7-.1-.5.2zm-15.6-22.9c1.2-3.1 4.5-3.8 6.7-1.3.2.2.5-.1.3-.3-1.8-3.3-7.2-2.2-7.5 1.6.1.2.4.2.5 0zm13.1 3.8c-.2-.1-.3.2-.2.3 3.7 1.8 7.7 4.5 12 3.8.2 0 .1-.3 0-.3-4.2 0-8-2-11.8-3.8zm41.3-5.6c1.4-2.3 5.1-.2 5.7 1.7.5 1.7 0 3.4-.6 5.1-.1.2.3.4.4.2 1.9-1.9 2.1-5.7-.1-7.5-1.6-1.3-5.1-2.4-5.8.3 0 .3.3.4.4.2zm-23.4 5c5.6-.9 11.3-2.4 16.9-1.4.1 0 .2-.2.1-.2-4.7-2.5-12.3-.1-17.1 1.2-.3 0-.2.5.1.4zm-21.8 1.3c7.1-4.1 13.7-2.8 21.3-1.2.3.1.4-.3.1-.4-6.8-2.6-15.7-4.1-21.6 1.2-.2.2 0 .5.2.4z" fill="#452c22" stroke-width="none" opacity="1"></path></g></g></g><g id="svga-group-mustache-single-move" transform="matrix(1,0,0,1,0,0)"><g id="svga-group-mustache-single"></g></g><g id="svga-group-nose-single-move" transform="matrix(1,0,0,1,0,0)"><g id="svga-group-nose-single"><path id="SvgjsPath10205" d="M105.53 106.38c.26.82 3.73 4.55 3.79 6.57.06 2.02-2.08 4.04-4.74 2.21 0 0-2.46 1.89-4.74 1.64s-3.54-1.83-3.54-1.83-2.15.82-3.98.19c-1.83-.63-2.27-2.84-.95-4.86 1.33-2.02 3.6-5.49 4.1-7.45.52-1.96 7.09-5.62 10.06 3.53z" fill="#f0c7b1" stroke-width="none" opacity="1" transform="translate(0 1)"></path><path id="SvgjsPath10206" d="M105.49 105.94c-.16-.2-.5.06-.36.28.93 1.43 1.95 2.83 2.81 4.31.59 1 1.18 2.25.77 3.46-.67 1.98-2.42 1.87-3.83 1.11.53-.68.84-1.48.77-2.36-.02-.22-.32-.41-.48-.2-1.4 1.76-2.29 3.6-4.89 3.7-2.75.11-4.52-2.12-5.25-4.51-.06-.21-.35-.16-.36.05-.07 1.1.27 2.16.87 3.06-.4.07-.8.15-1.2.17-1.28.08-1.49-.02-2.33-1.09-.89-1.12-.89-1.4-.4-2.65.23-.58.58-1.08.91-1.61 1.08-1.68 2.04-3.39 2.75-5.26 1.43-3.73 2.05-7.86 1.36-11.81-.03-.17-.29-.12-.29.04-.01 3.2-.21 6.36-1.15 9.44-.97 3.19-2.81 5.59-4.34 8.46-.8 1.49-1.13 3.46.23 4.74 1.35 1.28 3.43.87 5.01.27.94 1.02 2.24 1.72 3.61 1.85 1.55.14 3.58-.61 4.83-1.88 1.45 1.61 4.23.86 4.96-1.19 1.09-3.12-2.3-6.24-4-8.38z" fill="#c27b55" stroke-width="none" opacity="1" transform="translate(0 1)"></path><path id="SvgjsPath10207" d="M102.24 108.78c-.89-.83-2.3-1.07-3.3-.3-.36.28-.58.63-.67 1-.17.06-.34.16-.48.3-.76.74-.44 1.9.21 2.59.55.59 1.45.87 2.24.83.97-.05 1.85-.51 2.39-1.33.63-.95.44-2.31-.39-3.09z" fill="#f8d5c3" stroke-width="none" opacity="1" transform="translate(0 1)"></path></g></g><g id="svga-group-hair-front"><path id="SvgjsPath10320" d="M135.8 66.3c-1 3.3-1 5.1-.9 7.6.1 2.4-1 5.1 1.1 4.8 2.1-.3 4.4-.7 5.7-4.2 1.3-3.5 3-8.2 2.9-10-.1-1.8-3.7-9-3.7-9l-3.3 7.8-1.8 3z" fill="#4c342a" stroke-width="none" opacity="1"></path><path id="SvgjsPath10321" d="M143.8 74c.4-3.6 1-8.5.2-9.3-.8-.8-5.6 2.2-6 4.8s-.4 7.5-.4 7.5c-.7 2.7-.8 4-.7 5.8.1 1.8-1 3.9.7 3.6.1 0 .2 0 .2-.1-.3 2.3-.1 3.8.2 5.4.3 2.2-.7 4.5 1 4.6s2.7-.6 3.5-3.8c.8-3.2 1.3-6.4 1.4-9.5.1-2.5.2-6.3-.2-8.4.1-.2.1-.4.1-.6zm-81.6 6.8c-.5-1.6-.3-4-1-5.3s-3.5-6.4-3.5-6.4c-.9 1.8-2.3 3.9-2.3 7.1 0 2.7-.4 4.6.2 6.2-.1 1.2-.1 2.4 0 3.1.2 1.1 1.8 8.1 3.4 9.1 1.4.8 2.4-2.9 2.2-6.2 1.6-2.9 1.5-6.1 1-7.6z" fill="#452c22" stroke-width="none" opacity="1"></path><path id="SvgjsPath10322" d="M59.3 61c-.9.8-2.3 3.2-2.7 5.7s-.4 5 .1 6.2c.6 1.1 3.6 7.3 5.6 6.3 2-1 1.3-3 1.1-6.2s.1-3.7-.7-6.4c-.8-2.8-3.4-5.6-3.4-5.6zm8.9-37.1c-.7-2.5 3 1.4 2.9 7.5-.1 6.2 1 10.6 3.8 13 2.8 2.4 13.2 11.2 13.2 11.2s-2.4.7-7.2-.7-11-3.5-14.2-7.6-2.3-10.2-.9-13.2c1.4-2.9 3.3-6.9 2.4-10.2zm51.4 32c2.2-.6 5.8-1.7 7.5-.6 1.6 1.1 1.7 4.7 5.3 4.6 3.6-.1 6.8-6.5 6.5-9.4-.2-2.9-2.4-7.8-5.9-9.1-3.5-1.3-3.1 2.6-3.5 4.1-.4 1.5.1 2.5-3.5 5.1-3.5 2.7-6.4 5.3-6.4 5.3z" fill="#4c342a" stroke-width="none" opacity="1"></path><path id="SvgjsPath10323" d="M131.3 58.4c-.2 1.1-.4 4.4 1.1 6.4s.6 4.3 3.8 3.1c3.2-1.2 6.9-5.4 6.6-8.5-.2-3.1-2.7-10.6-5.3-12-2.7-1.3-2.9 4.6-2.9 4.6l-3.3 6.4zM66.4 40c-1.8 2.1-4.9 2.8-4.2 6.5s5.4 7.7 9.8 8.3 7.7-.1 8.3-.6-9.6-6.2-9.6-6.2l-4.3-8z" fill="#543c32" stroke-width="none" opacity="1"></path><path id="SvgjsPath10324" d="M62.8 45.5c-1.2 1-2.4 1.5-2.8 4.4-.4 2.9-.5 3.4 1.2 6.7 1.8 3.3 2 5.3 4.6 4.7 2.6-.6 5.5-2.9 5.2-6.5s-2.7-1.3-3.9-4.5-2.1-3.9-2.1-3.9l-2.2-.9z" fill="#4c342a" stroke-width="none" opacity="1"></path><path id="SvgjsPath10325" d="M60.9 52.2c-1.2 1.6-2.6 1.9-2.9 4.9s-1.3 2.9.7 6.4c2 3.5 4 7.7 5.9 5.7s1.6-3 1.9-5.4c.3-2.4-.6-4.9-1.7-7-1.2-2.2-3.9-4.6-3.9-4.6zm34.5 5s-6.4 0-10.1-1.8c-3.7-1.8-11.6-8.7-13.2-13.6s.4-14.4-.8-18.9c0 0 1.5 3.8 2.9 5.8s4.4 2 9.2 4.8 9.1 8.5 9.8 12.8 2.2 10.9 2.2 10.9z" fill="#452c22" stroke-width="none" opacity="1"></path><path id="SvgjsPath10326" d="M73.7 18.1c-.1-.5-2 6.7 2 10.6S85.9 37 87.2 42.2s.9 6.1 2.3 9.3 3.2 6.4 5.8 7.6c2.6 1.2 7.4-.2 7.4-1s4.1 3.5 6.8 2.2c2.7-1.3 10.3-10.6 11.4-17.2s-2.4-13.6-6.8-14.7-21.6-2.4-25.2-4.3c-3.6-1.9-5.2-3.7-5.6-5.1 0 0-.3 3.4 3 7.4S96 33 96 33s4.7 1.2 5.3 5c0 0-8.2-6.4-15-8.9s-10-.9-12.6-11z" fill="#4c342a" stroke-width="none" opacity="1"></path><path id="SvgjsPath10327" d="M104.5 60.4s-4.2.3-5.8-4.5S98 42 95.1 37.1s-13.9-7.4-16.7-10.3c-2.7-2.9-3.8-9.3-3.8-9.3s2.7 7.9 6.7 8.4c3.9.5 17.3 4.9 21.7 6.9s9.1 10.3 8.2 15.5-2.5 12.6-6.7 12.1z" fill="#543c32" stroke-width="none" opacity="1"></path><path id="SvgjsPath10328" d="M110.6 26.7c.6 0 10.8 2.9 15.9 4.5s17 10.3 4.4 17.8-8 8.8-20.3 10.9c-3.4.6 3.6-5.6 6.3-11 2.7-5.4 2.5-14.6 1-16.6s-7.3-5.6-7.3-5.6z" fill="#452c22" stroke-width="none" opacity="1"></path><path id="SvgjsPath10329" d="M96.3 58.9c-3.5-3-5.5-6.7-6.4-11.2-.6-3.2-.3-6.8-1.7-9.7-.9-1.8-2.2-3-3.8-4.1-4.4-3.1-7.9-5-9.8-10.5-.1-.2-.4-.1-.3.1.8 3 2.2 5.6 4.6 7.6 4.2 3.7 8.6 4.8 9.5 11.3.8 6.3 1.6 13.5 7.9 16.8-.1 0 .1-.2 0-.3zm2.5-.6c-6.1-2.7-8.2-8.4-8.7-14.6 0-.2-.3-.2-.3 0-.2 6.2 2.7 12.8 8.9 14.9.2 0 .3-.2.1-.3zm3.5.5c-3.5-4-4.4-8.4-4.3-13.6.1-2.9.5-5.9-1.2-8.5-1.4-2.2-3.7-3.1-5.9-4.2-3.7-1.8-7.3-3.6-11-5.1-.1 0-.2.1-.1.2 3.5 2 7.2 3.7 10.8 5.5 2.8 1.4 5.2 2.4 6.3 6 .6 1.9.2 4.2.2 6.1-.2 5.5 1.1 9.9 5 13.8.1.2.4-.1.2-.2zm3.6-.3c-3.7-3.2-1.6-6.9-1.5-11 0-2.6-.7-4.9-2-7.1-.1-.2-.3 0-.2.1 1.1 2.4 1.7 4.9 1.6 7.5-.1 1.8-.8 3.5-.8 5.3-.1 2.3 1 4 2.8 5.3.1.2.2 0 .1-.1zm18.3-25.6c-.2-.1-.3.2-.1.3.8.3 1.6.5 2.4.8v.1c7.6 6.6-2.7 14.6-7.7 18.1-.2.1 0 .4.2.3 5.3-2.8 16-12.5 8.1-18.3 3.1 1.3 3.8 2 4.7 5.5.8 3.2.4 4.9-2 7.4-1.3 1.4-3.1 2.4-4.8 3.4-4.2 2.5-7.9 5.8-12.2 8.2-.1 0 0 .2.1.1 4.4-2 8.1-5.5 12.3-8 2.8-1.7 5.7-3.5 7.1-6.5 3-6.4-2.7-10-8.1-11.4zm-10.5-3.3c-.1 0-.2.2 0 .2 4.6 1 9.8 2.1 10.5 7.7.5 4-2.1 7.8-4.8 10.4-3.5 3.3-7.4 5.9-8.2 11-.1.4.5.6.6.2 1.5-8.6 12.7-10.9 13.2-20.3.4-6.8-5.6-8.8-11.3-9.2zm-1.1 8.2c-4.2-9.5-17.4-8.6-24.7-14.5-.1-.1-.3.1-.2.2 7.2 6.7 18.9 5.6 24.3 14.6.3.3.8 0 .6-.3zm25.8 14.3c-.1-.2-.4-.2-.4 0 .1 5.3-6.3 8.5-4.5 14 .1.2.4.1.3-.1-1.3-5.4 5.8-8.4 4.6-13.9zm3.1 7.4c0-.2-.3-.2-.4 0-.6 1.8-1 3.6-1.9 5.3-.8 1.4-1.9 2.5-2.6 3.9-1 2-1.1 4-.5 6.1.1.2.4.1.3-.1-.6-4 1.4-5.9 3.3-9.1 1.1-1.9 1.6-4 1.8-6.1zm.7 2c0-.3-.4-.2-.5.1-.2 2.2-.4 4.1-1.2 6.1-.1.2.2.4.3.2 1-1.9 1.7-4.2 1.4-6.4zm0 11.7c0-.2-.3-.2-.4-.1-.6 3-1.6 5.7-2.5 8.6-.6 1.9-.8 3.6 0 5.4.1.3.6.1.5-.2-1-2.8.3-5.1 1.2-7.7.8-1.9 1.2-3.9 1.2-6zm-.2 8c-.5 1.1-.6 2.5-.6 3.7 0 .2.4.2.4 0 0-1.2.3-2.3.5-3.5 0-.3-.2-.5-.3-.2zM86.9 53.1c-4.5-1.6-8.2-3.9-10.6-8.2-2.5-4.4-2.2-9-2.3-13.9 0-.3-.5-.3-.5 0-.9 9.7 2.8 20 13.3 22.4.3.1.3-.2.1-.3zm-8.6-2c-2.7-1.7-5.5-4.7-7-7.5-1.9-3.4-1.8-7.3-1.7-11.1 0-.3-.4-.3-.4 0-.5 7.7 1.7 15 9 18.9.1.1.3-.2.1-.3zm-3.7.1c-3.8-1.8-6.7-4.4-8.4-8.4-.1-.2-.5-.2-.4.1 1.2 4 4.4 7.7 8.6 8.7.2.1.4-.3.2-.4zm-4.3 1.6c-1.7-.7-3.3-1.5-4.8-2.5-.1-.1-.2.1-.1.2 1.5 1 3.1 1.9 4.9 2.5.1-.1.1-.2 0-.2zM66 57.6c-1.6-1.5-3.2-2.8-4.4-4.6-.1-.2-.4 0-.3.2 1.2 1.8 2.7 3.6 4.5 4.7.1 0 .3-.2.2-.3zm55.6-20.7c-.4-3.5-3.1-6.2-6.5-6.7-.2 0-.2.2-.1.2 4.1 1.4 7.1 5.1 5.7 9.7-.8 2.6-3 4.6-4.6 6.7-.1.1.1.2.2.1 2.6-2.9 5.8-5.7 5.3-10zm-10.2-3.3c-.2-.2-.4.1-.2.2 5.6 6.5.8 14.3-1.4 21.2-.1.2.2.3.3.1 2.6-6.6 7.5-15.5 1.3-21.5zm-16.7-.9c-.2 0-.3.2-.1.3 8.9 2.5 3.9 14.4 6.7 20.7.1.2.3 0 .3-.1-1.8-6.4 2.2-18.9-6.9-20.9z" fill="#634e45" stroke-width="none" opacity="1"></path></g><g id="svga-group-glasses-single-move" transform="matrix(1,0,0,1,0,0)"><g id="svga-group-glasses-single"><path id="SvgjsPath10229" d="M79.9 76.8C88.8 76.8 96 84 96 92.9S88.8 109 79.9 109s-16.1-7.2-16.1-16.1S71 76.8 79.9 76.8z" fill="url(#SvgjsLinearGradient10230)" opacity="1"></path><path id="SvgjsPath10237" d="M120.1 76.8c8.9 0 16.1 7.2 16.1 16.1S129 109 120.1 109 104 101.7 104 92.9s7.2-16.1 16.1-16.1z" fill="url(#SvgjsLinearGradient10238)" opacity="1"></path><path id="SvgjsPath10245" d="M139.98 89.26c-2.15-.06-3.62-1.72-4.36-2.83-2.53-6.09-8.54-10.38-15.53-10.38-7.55 0-13.95 5-16.07 11.87-.23.02-.51 0-.86-.08-1.25-.29-2.11-1.06-3.17-1.06s-1.9.77-3.15 1.06c-.35.08-.63.1-.86.08-2.12-6.87-8.52-11.87-16.07-11.87-6.99 0-13 4.29-15.53 10.38-.75 1.11-2.22 2.78-4.36 2.83 0 0-.31 2.48-.08 4.65 0 0 2.55.42 3.62 2.8 1.75 7.42 8.41 12.97 16.35 12.97 8.98 0 16.32-7.08 16.77-15.95.76-2.24 1.87-3.2 2.6-3.6.44-.24.98-.24 1.42 0 .73.4 1.86 1.36 2.62 3.6.46 8.87 7.79 15.95 16.77 15.95 7.95 0 14.61-5.55 16.35-12.97 1.07-2.39 3.62-2.8 3.62-2.8.23-2.17-.08-4.65-.08-4.65zm-58.07 18.79c-10.01 1.27-18.46-7.18-17.18-17.19.87-6.82 6.37-12.32 13.19-13.19 10-1.27 18.45 7.18 17.18 17.18-.87 6.83-6.37 12.33-13.19 13.2zm40.17 0c-10.01 1.27-18.46-7.18-17.18-17.19.87-6.82 6.37-12.32 13.19-13.19 10-1.27 18.45 7.18 17.18 17.18-.86 6.83-6.37 12.33-13.19 13.2z" fill="#26120b" stroke-width="none" opacity="1"></path><path id="SvgjsPath10246" d="M139.97 89.28c-.88-.01-1.79-.34-2.52-.86-.75-.52-1.36-1.21-1.88-1.95v-.02a17.025 17.025 0 0 0-6.54-7.67 16.57 16.57 0 0 0-9.71-2.55c-3.39.16-6.72 1.4-9.39 3.5-2.68 2.08-4.68 5-5.69 8.24l-.05.15-.15.01c-.78.05-1.48-.23-2.13-.52-.65-.29-1.26-.63-1.9-.63-.64-.01-1.26.33-1.91.62-.65.29-1.35.56-2.13.5l-.13-.01-.04-.13c-.99-3.25-3.01-6.17-5.69-8.26a16.61 16.61 0 0 0-9.41-3.51c-3.4-.19-6.85.72-9.73 2.55-2.89 1.81-5.2 4.55-6.5 7.71v.01l-.01.01c-.51.75-1.12 1.45-1.87 1.98-.74.53-1.64.88-2.57.91l.1-.09c-.16 1.53-.22 3.09-.06 4.62l-.1-.1c.8.16 1.55.5 2.2.99.66.48 1.17 1.14 1.52 1.87v.02c.92 3.87 3.29 7.35 6.51 9.66 3.21 2.33 7.26 3.44 11.2 3.05 3.94-.36 7.71-2.18 10.43-5.04 2.75-2.84 4.41-6.68 4.62-10.63v-.03l.01-.03c.29-.85.67-1.68 1.23-2.41.28-.36.6-.7.97-.98.35-.27.81-.56 1.34-.55.53-.01.99.28 1.34.55.37.28.69.62.97.98.56.73.95 1.56 1.24 2.41l.01.03v.03c.21 3.94 1.88 7.78 4.63 10.61 2.71 2.86 6.48 4.71 10.42 5.07 3.94.4 8.01-.72 11.22-3.05 3.23-2.31 5.59-5.8 6.53-9.67v-.02c.35-.73.86-1.38 1.51-1.85.65-.48 1.39-.81 2.18-.97l-.04.07c.08-.77.11-1.54.1-2.32-.01-.39-.02-.77-.04-1.16l-.09-1.14zm.03-.04c.06.42.09.78.12 1.18.03.39.05.78.06 1.16.02.78.01 1.56-.06 2.33v.04l-.05.01c-.76.16-1.49.5-2.11.98-.63.46-1.11 1.1-1.43 1.8l.01-.02c-.89 3.93-3.28 7.49-6.54 9.87-3.25 2.4-7.39 3.58-11.43 3.2-4.04-.34-7.93-2.2-10.74-5.13a17.156 17.156 0 0 1-4.75-10.93l.01.07c-.28-.81-.64-1.6-1.16-2.27-.26-.33-.55-.64-.88-.89-.34-.26-.68-.47-1.05-.45-.37-.01-.71.19-1.05.45-.33.25-.62.56-.88.89-.52.67-.88 1.46-1.16 2.27l.01-.06c-.21 4.06-1.94 8.01-4.76 10.92-2.8 2.93-6.68 4.81-10.73 5.16-4.04.38-8.19-.8-11.44-3.2a17.182 17.182 0 0 1-6.56-9.88l.01.02c-.32-.7-.81-1.32-1.43-1.78-.61-.47-1.34-.8-2.09-.96l-.09-.02-.01-.08c-.15-1.56-.08-3.12.09-4.67l.01-.09h.09c.88-.02 1.74-.34 2.46-.86.73-.51 1.33-1.19 1.83-1.92l-.01.02c1.34-3.18 3.66-5.93 6.57-7.79 2.9-1.87 6.39-2.81 9.85-2.65 3.45.14 6.86 1.38 9.6 3.51 2.75 2.11 4.83 5.08 5.86 8.4l-.17-.15c.64.04 1.31-.2 1.93-.48.62-.28 1.29-.66 2.07-.66.79.01 1.45.38 2.08.65.62.28 1.29.51 1.92.47l-.19.16c1.02-3.33 3.12-6.3 5.87-8.42a16.9 16.9 0 0 1 9.62-3.52c3.46-.17 6.96.78 9.87 2.65 2.92 1.86 5.23 4.64 6.52 7.84l-.01-.01c.5.74 1.09 1.43 1.82 1.95a4.7 4.7 0 0 0 2.5.89z" fill="#070201" stroke-width="none" opacity="1"></path><path id="SvgjsPath10247" d="M81.91 108.07c-3.97.47-8.17-.49-11.41-2.96-3.24-2.42-5.5-6.19-5.95-10.24-.22-2.01-.11-4.07.43-6.02.53-1.95 1.46-3.79 2.72-5.37 1.26-1.57 2.76-2.96 4.51-3.97 1.74-1.02 3.68-1.7 5.68-1.98 4-.5 8.25.48 11.47 3.01 3.22 2.47 5.49 6.23 5.97 10.3.1.5.07 1.02.11 1.52.05.51.01 1.02-.03 1.52-.05 1.01-.19 2.03-.5 3.01-.54 1.96-1.49 3.8-2.76 5.38-2.48 3.2-6.26 5.29-10.24 5.8zm-.01-.05c1.98-.28 3.91-.94 5.62-1.96 1.72-1.01 3.2-2.4 4.4-3.98 2.45-3.16 3.38-7.28 2.91-11.18-.49-3.92-2.64-7.56-5.74-9.99-3.1-2.47-7.2-3.54-11.15-3.11-3.93.5-7.7 2.58-10.08 5.79-1.21 1.58-2.1 3.4-2.59 5.33-.5 1.92-.58 3.94-.34 5.9.53 3.94 2.68 7.56 5.76 10.04 3.09 2.54 7.24 3.62 11.21 3.16z" fill="#070201" stroke-width="none" opacity="1"></path><path id="SvgjsPath10248" d="M122.09 108.07c-3.97.47-8.17-.49-11.41-2.96-3.24-2.42-5.5-6.19-5.95-10.24-.22-2.01-.11-4.07.43-6.02.53-1.95 1.46-3.79 2.72-5.37 1.26-1.57 2.76-2.96 4.51-3.97 1.74-1.02 3.68-1.7 5.68-1.98 4-.5 8.25.48 11.47 3.01 3.22 2.47 5.49 6.23 5.97 10.3.1.5.07 1.02.11 1.52.05.51.01 1.02-.03 1.52-.05 1.01-.19 2.03-.5 3.01-.54 1.96-1.49 3.8-2.76 5.38-2.48 3.2-6.26 5.29-10.24 5.8zm-.01-.05c1.98-.28 3.91-.94 5.62-1.96 1.72-1.01 3.2-2.4 4.4-3.98 2.45-3.16 3.38-7.28 2.91-11.18-.49-3.92-2.64-7.56-5.74-9.99-3.1-2.47-7.2-3.54-11.15-3.11-3.93.5-7.7 2.58-10.08 5.79-1.21 1.58-2.1 3.4-2.59 5.33-.5 1.92-.58 3.94-.34 5.9.53 3.94 2.68 7.56 5.76 10.04 3.08 2.54 7.24 3.62 11.21 3.16z" fill="#070201" stroke-width="none" opacity="1"></path></g></g></g></g></g><rect id="svga-credit-rect" width="200" height="15" x="0" y="185" fill="#ecf0f1" opacity="0.5" style="display: none;"></rect><text id="svga-credit-text" font-family="Avenir Next, Roboto, Helvetica, Arial, sans-serif" font-size="10px" text-anchor="start" font-weight="400" size="10px" anchor="start" weight="400" fill="#333333" x="33.40447998046875" y="182.60824704170227" style="display: none;"><tspan id="SvgjsTspan9988" dy="13" x="33.40447998046875">Created on AvatarMaker.com</tspan></text></g><defs id="SvgjsDefs9935"><linearGradient id="SvgjsLinearGradient10230" x1="79.91" y1="76.79" x2="79.91" y2="108.93" gradientUnits="userSpaceOnUse" class="svga-on-canvas-glasses-gradient-single-0-null"><stop id="SvgjsStop10231" stop-opacity="1" stop-color="#b4c0cf" offset="0" ></stop><stop id="SvgjsStop10232" stop-opacity="0.9374" stop-color="#abbace" offset="0.0626" ></stop><stop id="SvgjsStop10233" stop-opacity="0.679" stop-color="#8aa3ca" offset="0.321" ></stop><stop id="SvgjsStop10234" stop-opacity="0.4305" stop-color="#7393c6" offset="0.5695" ></stop><stop id="SvgjsStop10235" stop-opacity="0.1987" stop-color="#6589c5" offset="0.8013" ></stop><stop id="SvgjsStop10236" stop-opacity="0" stop-color="#6086c4" offset="1" ></stop></linearGradient><linearGradient id="SvgjsLinearGradient10238" x1="120.1" y1="125.13" x2="120.1" y2="92.99" gradientTransform="matrix(1 0 0 -1 0 202)" gradientUnits="userSpaceOnUse" class="svga-on-canvas-glasses-gradient-single-1-null"><stop id="SvgjsStop10239" stop-opacity="1" stop-color="#b4c0cf" offset="0" ></stop><stop id="SvgjsStop10240" stop-opacity="0.9374" stop-color="#abbace" offset="0.0626" ></stop><stop id="SvgjsStop10241" stop-opacity="0.679" stop-color="#8aa3ca" offset="0.321" ></stop><stop id="SvgjsStop10242" stop-opacity="0.4305" stop-color="#7393c6" offset="0.5695" ></stop><stop id="SvgjsStop10243" stop-opacity="0.1987" stop-color="#6589c5" offset="0.8013" ></stop><stop id="SvgjsStop10244" stop-opacity="0" stop-color="#6086c4" offset="1" ></stop></linearGradient></defs></svg>